<?xml version="1.0" standalone="no"?>
<!DOCTYPE svg PUBLIC "-//W3C//DTD SVG 1.1//EN"
  "http://www.w3.org/Graphics/SVG/1.1/DTD/svg11.dtd">
<svg width="800" height="800"
     xmlns="http://www.w3.org/2000/svg" version="1.1">
<rect x="0" y="0" width="100%" height="100%" fill="white" />
<defs>
<marker id="arrow" markerWidth="10" markerHeight="10" refX="10" refY="3" orient="auto">
<path d="M0,0 L0,6 L9,3 z"/>
</marker>
</defs>
<circle cx="116" cy="364" r="3" fill="blue" />
<circle cx="563" cy="398" r="3" fill="blue" />
<circle cx="171" cy="494" r="3" fill="blue" />
<circle cx="511" cy="442" r="3" fill="blue" />
<circle cx="181" cy="538" r="3" fill="blue" />
<circle cx="614" cy="402" r="3" fill="blue" />
<circle cx="647" cy="109" r="3" fill="blue" />
<circle cx="153" cy="577" r="3" fill="blue" />
<circle cx="648" cy="401" r="3" fill="blue" />
<circle cx="578" cy="287" r="3" fill="blue" />
<circle cx="275" cy="468" r="3" fill="blue" />
<circle cx="241" cy="633" r="3" fill="blue" />
<circle cx="550" cy="602" r="3" fill="blue" />
<circle cx="130" cy="193" r="3" fill="blue" />
<circle cx="125" cy="148" r="3" fill="blue" />
<circle cx="116" cy="364" r="3" fill="blue" />
<line x1="116" y1="364" x2="171" y2="494"
      style="stroke: darkgray;" marker-end="url(#arrow)" />
<line x1="130" y1="193" x2="116" y2="364"
      style="stroke: darkgray;" marker-end="url(#arrow)" />
<circle cx="563" cy="398" r="3" fill="blue" />
<line x1="563" y1="398" x2="511" y2="442"
      style="stroke: darkgray;" marker-end="url(#arrow)" />
<line x1="563" y1="398" x2="614" y2="402"
      style="stroke: darkgray;" marker-end="url(#arrow)" />
<line x1="563" y1="398" x2="648" y2="401"
      style="stroke: darkgray;" marker-end="url(#arrow)" />
<line x1="578" y1="287" x2="563" y2="398"
      style="stroke: darkgray;" marker-end="url(#arrow)" />
<circle cx="171" cy="494" r="3" fill="blue" />
<line x1="171" y1="494" x2="181" y2="538"
      style="stroke: darkgray;" marker-end="url(#arrow)" />
<line x1="171" y1="494" x2="153" y2="577"
      style="stroke: darkgray;" marker-end="url(#arrow)" />
<line x1="275" y1="468" x2="171" y2="494"
      style="stroke: darkgray;" marker-end="url(#arrow)" />
<line x1="171" y1="494" x2="241" y2="633"
      style="stroke: darkgray;" marker-end="url(#arrow)" />
<circle cx="511" cy="442" r="3" fill="blue" />
<line x1="614" y1="402" x2="511" y2="442"
      style="stroke: darkgray;" marker-end="url(#arrow)" />
<line x1="648" y1="401" x2="511" y2="442"
      style="stroke: darkgray;" marker-end="url(#arrow)" />
<line x1="578" y1="287" x2="511" y2="442"
      style="stroke: darkgray;" marker-end="url(#arrow)" />
<line x1="511" y1="442" x2="550" y2="602"
      style="stroke: darkgray;" marker-end="url(#arrow)" />
<circle cx="181" cy="538" r="3" fill="blue" />
<line x1="181" y1="538" x2="153" y2="577"
      style="stroke: darkgray;" marker-end="url(#arrow)" />
<line x1="275" y1="468" x2="181" y2="538"
      style="stroke: darkgray;" marker-end="url(#arrow)" />
<line x1="181" y1="538" x2="241" y2="633"
      style="stroke: darkgray;" marker-end="url(#arrow)" />
<circle cx="614" cy="402" r="3" fill="blue" />
<line x1="648" y1="401" x2="614" y2="402"
      style="stroke: darkgray;" marker-end="url(#arrow)" />
<line x1="578" y1="287" x2="614" y2="402"
      style="stroke: darkgray;" marker-end="url(#arrow)" />
<circle cx="647" cy="109" r="3" fill="blue" />
<circle cx="153" cy="577" r="3" fill="blue" />
<line x1="275" y1="468" x2="153" y2="577"
      style="stroke: darkgray;" marker-end="url(#arrow)" />
<line x1="153" y1="577" x2="241" y2="633"
      style="stroke: darkgray;" marker-end="url(#arrow)" />
<circle cx="648" cy="401" r="3" fill="blue" />
<line x1="578" y1="287" x2="648" y2="401"
      style="stroke: darkgray;" marker-end="url(#arrow)" />
<circle cx="578" cy="287" r="3" fill="blue" />
<circle cx="275" cy="468" r="3" fill="blue" />
<line x1="275" y1="468" x2="241" y2="633"
      style="stroke: darkgray;" marker-end="url(#arrow)" />
<circle cx="241" cy="633" r="3" fill="blue" />
<circle cx="550" cy="602" r="3" fill="blue" />
<circle cx="130" cy="193" r="3" fill="blue" />
<line x1="125" y1="148" x2="130" y2="193"
      style="stroke: darkgray;" marker-end="url(#arrow)" />
<circle cx="125" cy="148" r="3" fill="blue" />
<text x="135" y="148" font-family="Verdana" font-size="10"> P14:[0,0.000,0.000]  </text><text x="140" y="193" font-family="Verdana" font-size="10"> P13:[1,0.076,0.076]  </text><text x="285" y="468" font-family="Verdana" font-size="10"> P10:[2,0.000,0.417]  </text><text x="588" y="287" font-family="Verdana" font-size="10"> P9:[3,0.000,0.078]  </text><text x="657" y="109" font-family="Verdana" font-size="10"> P6:[4,0.000,0.926]  </text><text x="573" y="398" font-family="Verdana" font-size="10"> P1:[5,0.188,0.266]  </text><text x="658" y="401" font-family="Verdana" font-size="10"> P8:[6,0.331,0.409]  </text><text x="624" y="402" font-family="Verdana" font-size="10"> P5:[7,0.389,0.466]  </text><text x="521" y="442" font-family="Verdana" font-size="10"> P3:[8,0.572,0.650]  </text><text x="560" y="602" font-family="Verdana" font-size="10"> P12:[9,0.848,0.926]  </text><text x="126" y="364" font-family="Verdana" font-size="10"> P0:[10,0.362,0.362]  </text><text x="181" y="494" font-family="Verdana" font-size="10"> P2:[11,0.597,0.597]  </text><text x="191" y="538" font-family="Verdana" font-size="10"> P4:[12,0.673,0.673]  </text><text x="163" y="577" font-family="Verdana" font-size="10"> P7:[13,0.753,0.753]  </text><text x="251" y="633" font-family="Verdana" font-size="10"> P11:[14,0.926,0.926]  </text></svg>
