<?xml version="1.0" standalone="no"?>
<!DOCTYPE svg PUBLIC "-//W3C//DTD SVG 1.1//EN"
  "http://www.w3.org/Graphics/SVG/1.1/DTD/svg11.dtd">
<svg width="800" height="800"
     xmlns="http://www.w3.org/2000/svg" version="1.1">
<rect x="0" y="0" width="100%" height="100%" fill="white" />
<defs>
<marker id="arrow" markerWidth="10" markerHeight="10" refX="10" refY="3" orient="auto">
<path d="M0,0 L0,6 L9,3 z"/>
</marker>
</defs>
<circle cx="230" cy="155" r="3" fill="blue" />
<circle cx="186" cy="527" r="3" fill="blue" />
<circle cx="165" cy="136" r="3" fill="blue" />
<circle cx="388" cy="500" r="3" fill="blue" />
<circle cx="190" cy="694" r="3" fill="blue" />
<circle cx="686" cy="294" r="3" fill="blue" />
<circle cx="455" cy="615" r="3" fill="blue" />
<circle cx="331" cy="577" r="3" fill="blue" />
<circle cx="259" cy="117" r="3" fill="blue" />
<circle cx="526" cy="452" r="3" fill="blue" />
<circle cx="126" cy="146" r="3" fill="blue" />
<circle cx="483" cy="209" r="3" fill="blue" />
<circle cx="102" cy="657" r="3" fill="blue" />
<circle cx="547" cy="129" r="3" fill="blue" />
<circle cx="153" cy="327" r="3" fill="blue" />
<circle cx="230" cy="155" r="3" fill="blue" />
<line x1="165" y1="136" x2="230" y2="155"
      style="stroke: darkgray;" marker-end="url(#arrow)" />
<line x1="259" y1="117" x2="230" y2="155"
      style="stroke: darkgray;" marker-end="url(#arrow)" />
<line x1="126" y1="146" x2="230" y2="155"
      style="stroke: darkgray;" marker-end="url(#arrow)" />
<circle cx="186" cy="527" r="3" fill="blue" />
<line x1="186" y1="527" x2="190" y2="694"
      style="stroke: darkgray;" marker-end="url(#arrow)" />
<line x1="186" y1="527" x2="331" y2="577"
      style="stroke: darkgray;" marker-end="url(#arrow)" />
<line x1="186" y1="527" x2="102" y2="657"
      style="stroke: darkgray;" marker-end="url(#arrow)" />
<circle cx="165" cy="136" r="3" fill="blue" />
<line x1="259" y1="117" x2="165" y2="136"
      style="stroke: darkgray;" marker-end="url(#arrow)" />
<line x1="165" y1="136" x2="126" y2="146"
      style="stroke: darkgray;" marker-end="url(#arrow)" />
<circle cx="388" cy="500" r="3" fill="blue" />
<line x1="388" y1="500" x2="455" y2="615"
      style="stroke: darkgray;" marker-end="url(#arrow)" />
<line x1="388" y1="500" x2="331" y2="577"
      style="stroke: darkgray;" marker-end="url(#arrow)" />
<line x1="526" y1="452" x2="388" y2="500"
      style="stroke: darkgray;" marker-end="url(#arrow)" />
<circle cx="190" cy="694" r="3" fill="blue" />
<line x1="102" y1="657" x2="190" y2="694"
      style="stroke: darkgray;" marker-end="url(#arrow)" />
<circle cx="686" cy="294" r="3" fill="blue" />
<circle cx="455" cy="615" r="3" fill="blue" />
<line x1="331" y1="577" x2="455" y2="615"
      style="stroke: darkgray;" marker-end="url(#arrow)" />
<line x1="526" y1="452" x2="455" y2="615"
      style="stroke: darkgray;" marker-end="url(#arrow)" />
<circle cx="331" cy="577" r="3" fill="blue" />
<circle cx="259" cy="117" r="3" fill="blue" />
<line x1="259" y1="117" x2="126" y2="146"
      style="stroke: darkgray;" marker-end="url(#arrow)" />
<circle cx="526" cy="452" r="3" fill="blue" />
<circle cx="126" cy="146" r="3" fill="blue" />
<circle cx="483" cy="209" r="3" fill="blue" />
<line x1="547" y1="129" x2="483" y2="209"
      style="stroke: darkgray;" marker-end="url(#arrow)" />
<circle cx="102" cy="657" r="3" fill="blue" />
<circle cx="547" cy="129" r="3" fill="blue" />
<circle cx="153" cy="327" r="3" fill="blue" />
<text x="163" y="327" font-family="Verdana" font-size="10"> P14:[0,0.000,0.619]  </text><text x="557" y="129" font-family="Verdana" font-size="10"> P13:[1,0.000,0.449]  </text><text x="493" y="209" font-family="Verdana" font-size="10"> P11:[2,0.170,0.619]  </text><text x="536" y="452" font-family="Verdana" font-size="10"> P9:[3,0.000,0.000]  </text><text x="269" y="117" font-family="Verdana" font-size="10"> P8:[4,0.000,0.218]  </text><text x="696" y="294" font-family="Verdana" font-size="10"> P5:[5,0.000,0.619]  </text><text x="398" y="500" font-family="Verdana" font-size="10"> P3:[6,0.243,0.243]  </text><text x="175" y="136" font-family="Verdana" font-size="10"> P2:[7,0.161,0.380]  </text><text x="136" y="146" font-family="Verdana" font-size="10"> P10:[8,0.227,0.445]  </text><text x="196" y="527" font-family="Verdana" font-size="10"> P1:[9,0.000,0.147]  </text><text x="341" y="577" font-family="Verdana" font-size="10"> P7:[10,0.403,0.403]  </text><text x="465" y="615" font-family="Verdana" font-size="10"> P6:[11,0.619,0.619]  </text><text x="112" y="657" font-family="Verdana" font-size="10"> P12:[12,0.258,0.459]  </text><text x="200" y="694" font-family="Verdana" font-size="10"> P4:[13,0.417,0.619]  </text><text x="240" y="155" font-family="Verdana" font-size="10"> P0:[14,0.400,0.619]  </text></svg>
