<?xml version="1.0" standalone="no"?>
<!DOCTYPE svg PUBLIC "-//W3C//DTD SVG 1.1//EN"
  "http://www.w3.org/Graphics/SVG/1.1/DTD/svg11.dtd">
<svg width="800" height="800"
     xmlns="http://www.w3.org/2000/svg" version="1.1">
<rect x="0" y="0" width="100%" height="100%" fill="white" />
<defs>
<marker id="arrow" markerWidth="10" markerHeight="10" refX="10" refY="3" orient="auto">
<path d="M0,0 L0,6 L9,3 z"/>
</marker>
</defs>
<circle cx="643" cy="496" r="3" fill="blue" />
<circle cx="336" cy="142" r="3" fill="blue" />
<circle cx="267" cy="562" r="3" fill="blue" />
<circle cx="548" cy="196" r="3" fill="blue" />
<circle cx="160" cy="358" r="3" fill="blue" />
<circle cx="498" cy="478" r="3" fill="blue" />
<circle cx="290" cy="404" r="3" fill="blue" />
<circle cx="177" cy="364" r="3" fill="blue" />
<circle cx="662" cy="130" r="3" fill="blue" />
<circle cx="224" cy="441" r="3" fill="blue" />
<circle cx="538" cy="129" r="3" fill="blue" />
<circle cx="633" cy="336" r="3" fill="blue" />
<circle cx="113" cy="504" r="3" fill="blue" />
<circle cx="612" cy="452" r="3" fill="blue" />
<circle cx="258" cy="215" r="3" fill="blue" />
<circle cx="643" cy="496" r="3" fill="blue" />
<line x1="498" y1="478" x2="643" y2="496"
      style="stroke: darkgray;" marker-end="url(#arrow)" />
<line x1="633" y1="336" x2="643" y2="496"
      style="stroke: darkgray;" marker-end="url(#arrow)" />
<line x1="612" y1="452" x2="643" y2="496"
      style="stroke: darkgray;" marker-end="url(#arrow)" />
<circle cx="336" cy="142" r="3" fill="blue" />
<line x1="336" y1="142" x2="258" y2="215"
      style="stroke: darkgray;" marker-end="url(#arrow)" />
<circle cx="267" cy="562" r="3" fill="blue" />
<line x1="290" y1="404" x2="267" y2="562"
      style="stroke: darkgray;" marker-end="url(#arrow)" />
<line x1="224" y1="441" x2="267" y2="562"
      style="stroke: darkgray;" marker-end="url(#arrow)" />
<line x1="113" y1="504" x2="267" y2="562"
      style="stroke: darkgray;" marker-end="url(#arrow)" />
<circle cx="548" cy="196" r="3" fill="blue" />
<line x1="662" y1="130" x2="548" y2="196"
      style="stroke: darkgray;" marker-end="url(#arrow)" />
<line x1="538" y1="129" x2="548" y2="196"
      style="stroke: darkgray;" marker-end="url(#arrow)" />
<line x1="548" y1="196" x2="633" y2="336"
      style="stroke: darkgray;" marker-end="url(#arrow)" />
<circle cx="160" cy="358" r="3" fill="blue" />
<line x1="160" y1="358" x2="290" y2="404"
      style="stroke: darkgray;" marker-end="url(#arrow)" />
<line x1="160" y1="358" x2="177" y2="364"
      style="stroke: darkgray;" marker-end="url(#arrow)" />
<line x1="160" y1="358" x2="224" y2="441"
      style="stroke: darkgray;" marker-end="url(#arrow)" />
<line x1="160" y1="358" x2="113" y2="504"
      style="stroke: darkgray;" marker-end="url(#arrow)" />
<line x1="258" y1="215" x2="160" y2="358"
      style="stroke: darkgray;" marker-end="url(#arrow)" />
<circle cx="498" cy="478" r="3" fill="blue" />
<line x1="612" y1="452" x2="498" y2="478"
      style="stroke: darkgray;" marker-end="url(#arrow)" />
<circle cx="290" cy="404" r="3" fill="blue" />
<line x1="177" y1="364" x2="290" y2="404"
      style="stroke: darkgray;" marker-end="url(#arrow)" />
<line x1="290" y1="404" x2="224" y2="441"
      style="stroke: darkgray;" marker-end="url(#arrow)" />
<circle cx="177" cy="364" r="3" fill="blue" />
<line x1="177" y1="364" x2="224" y2="441"
      style="stroke: darkgray;" marker-end="url(#arrow)" />
<line x1="177" y1="364" x2="113" y2="504"
      style="stroke: darkgray;" marker-end="url(#arrow)" />
<line x1="258" y1="215" x2="177" y2="364"
      style="stroke: darkgray;" marker-end="url(#arrow)" />
<circle cx="662" cy="130" r="3" fill="blue" />
<line x1="538" y1="129" x2="662" y2="130"
      style="stroke: darkgray;" marker-end="url(#arrow)" />
<circle cx="224" cy="441" r="3" fill="blue" />
<line x1="224" y1="441" x2="113" y2="504"
      style="stroke: darkgray;" marker-end="url(#arrow)" />
<circle cx="538" cy="129" r="3" fill="blue" />
<circle cx="633" cy="336" r="3" fill="blue" />
<line x1="633" y1="336" x2="612" y2="452"
      style="stroke: darkgray;" marker-end="url(#arrow)" />
<circle cx="113" cy="504" r="3" fill="blue" />
<circle cx="612" cy="452" r="3" fill="blue" />
<circle cx="258" cy="215" r="3" fill="blue" />
</svg>
