<?xml version="1.0" standalone="no"?>
<!DOCTYPE svg PUBLIC "-//W3C//DTD SVG 1.1//EN"
  "http://www.w3.org/Graphics/SVG/1.1/DTD/svg11.dtd">
<svg width="800" height="800"
     xmlns="http://www.w3.org/2000/svg" version="1.1">
<rect x="0" y="0" width="100%" height="100%" fill="white" />
<defs>
<marker id="arrow" markerWidth="10" markerHeight="10" refX="10" refY="3" orient="auto">
<path d="M0,0 L0,6 L9,3 z"/>
</marker>
</defs>
<circle cx="327" cy="193" r="3" fill="blue" />
<circle cx="531" cy="590" r="3" fill="blue" />
<circle cx="375" cy="418" r="3" fill="blue" />
<circle cx="455" cy="412" r="3" fill="blue" />
<circle cx="682" cy="446" r="3" fill="blue" />
<circle cx="633" cy="667" r="3" fill="blue" />
<circle cx="544" cy="595" r="3" fill="blue" />
<circle cx="463" cy="243" r="3" fill="blue" />
<circle cx="244" cy="228" r="3" fill="blue" />
<circle cx="526" cy="536" r="3" fill="blue" />
<circle cx="676" cy="648" r="3" fill="blue" />
<circle cx="439" cy="648" r="3" fill="blue" />
<circle cx="597" cy="644" r="3" fill="blue" />
<circle cx="205" cy="124" r="3" fill="blue" />
<circle cx="147" cy="524" r="3" fill="blue" />
<circle cx="327" cy="193" r="3" fill="blue" />
<line x1="327" y1="193" x2="463" y2="243"
      style="stroke: darkgray;" marker-end="url(#arrow)" />
<line x1="327" y1="193" x2="244" y2="228"
      style="stroke: darkgray;" marker-end="url(#arrow)" />
<line x1="205" y1="124" x2="327" y2="193"
      style="stroke: darkgray;" marker-end="url(#arrow)" />
<circle cx="531" cy="590" r="3" fill="blue" />
<line x1="531" y1="590" x2="633" y2="667"
      style="stroke: darkgray;" marker-end="url(#arrow)" />
<line x1="531" y1="590" x2="544" y2="595"
      style="stroke: darkgray;" marker-end="url(#arrow)" />
<line x1="526" y1="536" x2="531" y2="590"
      style="stroke: darkgray;" marker-end="url(#arrow)" />
<line x1="531" y1="590" x2="676" y2="648"
      style="stroke: darkgray;" marker-end="url(#arrow)" />
<line x1="531" y1="590" x2="439" y2="648"
      style="stroke: darkgray;" marker-end="url(#arrow)" />
<line x1="531" y1="590" x2="597" y2="644"
      style="stroke: darkgray;" marker-end="url(#arrow)" />
<circle cx="375" cy="418" r="3" fill="blue" />
<line x1="455" y1="412" x2="375" y2="418"
      style="stroke: darkgray;" marker-end="url(#arrow)" />
<circle cx="455" cy="412" r="3" fill="blue" />
<line x1="463" y1="243" x2="455" y2="412"
      style="stroke: darkgray;" marker-end="url(#arrow)" />
<line x1="455" y1="412" x2="526" y2="536"
      style="stroke: darkgray;" marker-end="url(#arrow)" />
<circle cx="682" cy="446" r="3" fill="blue" />
<circle cx="633" cy="667" r="3" fill="blue" />
<line x1="544" y1="595" x2="633" y2="667"
      style="stroke: darkgray;" marker-end="url(#arrow)" />
<line x1="526" y1="536" x2="633" y2="667"
      style="stroke: darkgray;" marker-end="url(#arrow)" />
<line x1="676" y1="648" x2="633" y2="667"
      style="stroke: darkgray;" marker-end="url(#arrow)" />
<line x1="597" y1="644" x2="633" y2="667"
      style="stroke: darkgray;" marker-end="url(#arrow)" />
<circle cx="544" cy="595" r="3" fill="blue" />
<line x1="526" y1="536" x2="544" y2="595"
      style="stroke: darkgray;" marker-end="url(#arrow)" />
<line x1="544" y1="595" x2="676" y2="648"
      style="stroke: darkgray;" marker-end="url(#arrow)" />
<line x1="544" y1="595" x2="439" y2="648"
      style="stroke: darkgray;" marker-end="url(#arrow)" />
<line x1="544" y1="595" x2="597" y2="644"
      style="stroke: darkgray;" marker-end="url(#arrow)" />
<circle cx="463" cy="243" r="3" fill="blue" />
<circle cx="244" cy="228" r="3" fill="blue" />
<line x1="205" y1="124" x2="244" y2="228"
      style="stroke: darkgray;" marker-end="url(#arrow)" />
<circle cx="526" cy="536" r="3" fill="blue" />
<line x1="526" y1="536" x2="439" y2="648"
      style="stroke: darkgray;" marker-end="url(#arrow)" />
<line x1="526" y1="536" x2="597" y2="644"
      style="stroke: darkgray;" marker-end="url(#arrow)" />
<circle cx="676" cy="648" r="3" fill="blue" />
<line x1="597" y1="644" x2="676" y2="648"
      style="stroke: darkgray;" marker-end="url(#arrow)" />
<circle cx="439" cy="648" r="3" fill="blue" />
<line x1="597" y1="644" x2="439" y2="648"
      style="stroke: darkgray;" marker-end="url(#arrow)" />
<circle cx="597" cy="644" r="3" fill="blue" />
<circle cx="205" cy="124" r="3" fill="blue" />
<circle cx="147" cy="524" r="3" fill="blue" />
</svg>
