<?xml version="1.0" standalone="no"?>
<!DOCTYPE svg PUBLIC "-//W3C//DTD SVG 1.1//EN"
  "http://www.w3.org/Graphics/SVG/1.1/DTD/svg11.dtd">
<svg width="800" height="800"
     xmlns="http://www.w3.org/2000/svg" version="1.1">
<rect x="0" y="0" width="100%" height="100%" fill="white" />
<defs>
<marker id="arrow" markerWidth="10" markerHeight="10" refX="10" refY="3" orient="auto">
<path d="M0,0 L0,6 L9,3 z"/>
</marker>
</defs>
<circle cx="230" cy="155" r="3" fill="blue" />
<circle cx="186" cy="527" r="3" fill="blue" />
<circle cx="165" cy="136" r="3" fill="blue" />
<circle cx="388" cy="500" r="3" fill="blue" />
<circle cx="190" cy="694" r="3" fill="blue" />
<circle cx="686" cy="294" r="3" fill="blue" />
<circle cx="455" cy="615" r="3" fill="blue" />
<circle cx="331" cy="577" r="3" fill="blue" />
<circle cx="259" cy="117" r="3" fill="blue" />
<circle cx="526" cy="452" r="3" fill="blue" />
<circle cx="126" cy="146" r="3" fill="blue" />
<circle cx="483" cy="209" r="3" fill="blue" />
<circle cx="102" cy="657" r="3" fill="blue" />
<circle cx="547" cy="129" r="3" fill="blue" />
<circle cx="153" cy="327" r="3" fill="blue" />
<circle cx="230" cy="155" r="3" fill="blue" />
<line x1="165" y1="136" x2="230" y2="155"
      style="stroke: darkgray;" marker-end="url(#arrow)" />
<line x1="259" y1="117" x2="230" y2="155"
      style="stroke: darkgray;" marker-end="url(#arrow)" />
<line x1="126" y1="146" x2="230" y2="155"
      style="stroke: darkgray;" marker-end="url(#arrow)" />
<circle cx="186" cy="527" r="3" fill="blue" />
<line x1="186" y1="527" x2="190" y2="694"
      style="stroke: darkgray;" marker-end="url(#arrow)" />
<line x1="186" y1="527" x2="331" y2="577"
      style="stroke: darkgray;" marker-end="url(#arrow)" />
<line x1="186" y1="527" x2="102" y2="657"
      style="stroke: darkgray;" marker-end="url(#arrow)" />
<circle cx="165" cy="136" r="3" fill="blue" />
<line x1="259" y1="117" x2="165" y2="136"
      style="stroke: darkgray;" marker-end="url(#arrow)" />
<line x1="165" y1="136" x2="126" y2="146"
      style="stroke: darkgray;" marker-end="url(#arrow)" />
<circle cx="388" cy="500" r="3" fill="blue" />
<line x1="388" y1="500" x2="455" y2="615"
      style="stroke: darkgray;" marker-end="url(#arrow)" />
<line x1="388" y1="500" x2="331" y2="577"
      style="stroke: darkgray;" marker-end="url(#arrow)" />
<line x1="526" y1="452" x2="388" y2="500"
      style="stroke: darkgray;" marker-end="url(#arrow)" />
<circle cx="190" cy="694" r="3" fill="blue" />
<line x1="102" y1="657" x2="190" y2="694"
      style="stroke: darkgray;" marker-end="url(#arrow)" />
<circle cx="686" cy="294" r="3" fill="blue" />
<circle cx="455" cy="615" r="3" fill="blue" />
<line x1="331" y1="577" x2="455" y2="615"
      style="stroke: darkgray;" marker-end="url(#arrow)" />
<line x1="526" y1="452" x2="455" y2="615"
      style="stroke: darkgray;" marker-end="url(#arrow)" />
<circle cx="331" cy="577" r="3" fill="blue" />
<circle cx="259" cy="117" r="3" fill="blue" />
<line x1="259" y1="117" x2="126" y2="146"
      style="stroke: darkgray;" marker-end="url(#arrow)" />
<circle cx="526" cy="452" r="3" fill="blue" />
<circle cx="126" cy="146" r="3" fill="blue" />
<circle cx="483" cy="209" r="3" fill="blue" />
<line x1="547" y1="129" x2="483" y2="209"
      style="stroke: darkgray;" marker-end="url(#arrow)" />
<circle cx="102" cy="657" r="3" fill="blue" />
<circle cx="547" cy="129" r="3" fill="blue" />
<circle cx="153" cy="327" r="3" fill="blue" />
</svg>
