<?xml version="1.0" standalone="no"?>
<!DOCTYPE svg PUBLIC "-//W3C//DTD SVG 1.1//EN"
  "http://www.w3.org/Graphics/SVG/1.1/DTD/svg11.dtd">
<svg width="800" height="800"
     xmlns="http://www.w3.org/2000/svg" version="1.1">
<rect x="0" y="0" width="100%" height="100%" fill="white" />
<defs>
<marker id="arrow" markerWidth="10" markerHeight="10" refX="10" refY="3" orient="auto">
<path d="M0,0 L0,6 L9,3 z"/>
</marker>
</defs>
<circle cx="498" cy="666" r="3" fill="blue" />
<circle cx="387" cy="548" r="3" fill="blue" />
<circle cx="389" cy="575" r="3" fill="blue" />
<circle cx="596" cy="385" r="3" fill="blue" />
<circle cx="282" cy="330" r="3" fill="blue" />
<circle cx="528" cy="648" r="3" fill="blue" />
<circle cx="558" cy="108" r="3" fill="blue" />
<circle cx="169" cy="549" r="3" fill="blue" />
<circle cx="580" cy="618" r="3" fill="blue" />
<circle cx="636" cy="199" r="3" fill="blue" />
<circle cx="568" cy="544" r="3" fill="blue" />
<circle cx="451" cy="180" r="3" fill="blue" />
<circle cx="357" cy="489" r="3" fill="blue" />
<circle cx="290" cy="190" r="3" fill="blue" />
<circle cx="451" cy="638" r="3" fill="blue" />
<circle cx="498" cy="666" r="3" fill="blue" />
<line x1="387" y1="548" x2="498" y2="666"
      style="stroke: darkgray;" marker-end="url(#arrow)" />
<line x1="389" y1="575" x2="498" y2="666"
      style="stroke: darkgray;" marker-end="url(#arrow)" />
<line x1="528" y1="648" x2="498" y2="666"
      style="stroke: darkgray;" marker-end="url(#arrow)" />
<line x1="580" y1="618" x2="498" y2="666"
      style="stroke: darkgray;" marker-end="url(#arrow)" />
<line x1="568" y1="544" x2="498" y2="666"
      style="stroke: darkgray;" marker-end="url(#arrow)" />
<line x1="451" y1="638" x2="498" y2="666"
      style="stroke: darkgray;" marker-end="url(#arrow)" />
<circle cx="387" cy="548" r="3" fill="blue" />
<line x1="387" y1="548" x2="389" y2="575"
      style="stroke: darkgray;" marker-end="url(#arrow)" />
<line x1="387" y1="548" x2="528" y2="648"
      style="stroke: darkgray;" marker-end="url(#arrow)" />
<line x1="357" y1="489" x2="387" y2="548"
      style="stroke: darkgray;" marker-end="url(#arrow)" />
<line x1="387" y1="548" x2="451" y2="638"
      style="stroke: darkgray;" marker-end="url(#arrow)" />
<circle cx="389" cy="575" r="3" fill="blue" />
<line x1="389" y1="575" x2="528" y2="648"
      style="stroke: darkgray;" marker-end="url(#arrow)" />
<line x1="357" y1="489" x2="389" y2="575"
      style="stroke: darkgray;" marker-end="url(#arrow)" />
<line x1="389" y1="575" x2="451" y2="638"
      style="stroke: darkgray;" marker-end="url(#arrow)" />
<circle cx="596" cy="385" r="3" fill="blue" />
<line x1="596" y1="385" x2="568" y2="544"
      style="stroke: darkgray;" marker-end="url(#arrow)" />
<circle cx="282" cy="330" r="3" fill="blue" />
<line x1="282" y1="330" x2="357" y2="489"
      style="stroke: darkgray;" marker-end="url(#arrow)" />
<line x1="290" y1="190" x2="282" y2="330"
      style="stroke: darkgray;" marker-end="url(#arrow)" />
<circle cx="528" cy="648" r="3" fill="blue" />
<line x1="580" y1="618" x2="528" y2="648"
      style="stroke: darkgray;" marker-end="url(#arrow)" />
<line x1="568" y1="544" x2="528" y2="648"
      style="stroke: darkgray;" marker-end="url(#arrow)" />
<line x1="451" y1="638" x2="528" y2="648"
      style="stroke: darkgray;" marker-end="url(#arrow)" />
<circle cx="558" cy="108" r="3" fill="blue" />
<line x1="558" y1="108" x2="636" y2="199"
      style="stroke: darkgray;" marker-end="url(#arrow)" />
<line x1="558" y1="108" x2="451" y2="180"
      style="stroke: darkgray;" marker-end="url(#arrow)" />
<circle cx="169" cy="549" r="3" fill="blue" />
<circle cx="580" cy="618" r="3" fill="blue" />
<line x1="568" y1="544" x2="580" y2="618"
      style="stroke: darkgray;" marker-end="url(#arrow)" />
<line x1="580" y1="618" x2="451" y2="638"
      style="stroke: darkgray;" marker-end="url(#arrow)" />
<circle cx="636" cy="199" r="3" fill="blue" />
<circle cx="568" cy="544" r="3" fill="blue" />
<line x1="568" y1="544" x2="451" y2="638"
      style="stroke: darkgray;" marker-end="url(#arrow)" />
<circle cx="451" cy="180" r="3" fill="blue" />
<line x1="451" y1="180" x2="290" y2="190"
      style="stroke: darkgray;" marker-end="url(#arrow)" />
<circle cx="357" cy="489" r="3" fill="blue" />
<line x1="357" y1="489" x2="451" y2="638"
      style="stroke: darkgray;" marker-end="url(#arrow)" />
<circle cx="290" cy="190" r="3" fill="blue" />
<circle cx="451" cy="638" r="3" fill="blue" />
</svg>
