<?xml version="1.0" standalone="no"?>
<!DOCTYPE svg PUBLIC "-//W3C//DTD SVG 1.1//EN"
  "http://www.w3.org/Graphics/SVG/1.1/DTD/svg11.dtd">
<svg width="800" height="800"
     xmlns="http://www.w3.org/2000/svg" version="1.1">
<rect x="0" y="0" width="100%" height="100%" fill="white" />
<defs>
<marker id="arrow" markerWidth="10" markerHeight="10" refX="10" refY="3" orient="auto">
<path d="M0,0 L0,6 L9,3 z"/>
</marker>
</defs>
<circle cx="478" cy="354" r="3" fill="blue" />
<circle cx="554" cy="544" r="3" fill="blue" />
<circle cx="415" cy="673" r="3" fill="blue" />
<circle cx="151" cy="398" r="3" fill="blue" />
<circle cx="404" cy="552" r="3" fill="blue" />
<circle cx="333" cy="484" r="3" fill="blue" />
<circle cx="617" cy="507" r="3" fill="blue" />
<circle cx="575" cy="422" r="3" fill="blue" />
<circle cx="460" cy="662" r="3" fill="blue" />
<circle cx="384" cy="691" r="3" fill="blue" />
<circle cx="320" cy="408" r="3" fill="blue" />
<circle cx="405" cy="192" r="3" fill="blue" />
<circle cx="480" cy="674" r="3" fill="blue" />
<circle cx="142" cy="341" r="3" fill="blue" />
<circle cx="420" cy="223" r="3" fill="blue" />
<circle cx="478" cy="354" r="3" fill="blue" />
<line x1="478" y1="354" x2="575" y2="422"
      style="stroke: darkgray;" marker-end="url(#arrow)" />
<line x1="478" y1="354" x2="320" y2="408"
      style="stroke: darkgray;" marker-end="url(#arrow)" />
<line x1="405" y1="192" x2="478" y2="354"
      style="stroke: darkgray;" marker-end="url(#arrow)" />
<line x1="420" y1="223" x2="478" y2="354"
      style="stroke: darkgray;" marker-end="url(#arrow)" />
<circle cx="554" cy="544" r="3" fill="blue" />
<line x1="554" y1="544" x2="404" y2="552"
      style="stroke: darkgray;" marker-end="url(#arrow)" />
<line x1="617" y1="507" x2="554" y2="544"
      style="stroke: darkgray;" marker-end="url(#arrow)" />
<line x1="575" y1="422" x2="554" y2="544"
      style="stroke: darkgray;" marker-end="url(#arrow)" />
<line x1="554" y1="544" x2="460" y2="662"
      style="stroke: darkgray;" marker-end="url(#arrow)" />
<line x1="554" y1="544" x2="480" y2="674"
      style="stroke: darkgray;" marker-end="url(#arrow)" />
<circle cx="415" cy="673" r="3" fill="blue" />
<line x1="404" y1="552" x2="415" y2="673"
      style="stroke: darkgray;" marker-end="url(#arrow)" />
<line x1="460" y1="662" x2="415" y2="673"
      style="stroke: darkgray;" marker-end="url(#arrow)" />
<line x1="415" y1="673" x2="384" y2="691"
      style="stroke: darkgray;" marker-end="url(#arrow)" />
<line x1="415" y1="673" x2="480" y2="674"
      style="stroke: darkgray;" marker-end="url(#arrow)" />
<circle cx="151" cy="398" r="3" fill="blue" />
<line x1="151" y1="398" x2="320" y2="408"
      style="stroke: darkgray;" marker-end="url(#arrow)" />
<line x1="142" y1="341" x2="151" y2="398"
      style="stroke: darkgray;" marker-end="url(#arrow)" />
<circle cx="404" cy="552" r="3" fill="blue" />
<line x1="333" y1="484" x2="404" y2="552"
      style="stroke: darkgray;" marker-end="url(#arrow)" />
<line x1="404" y1="552" x2="460" y2="662"
      style="stroke: darkgray;" marker-end="url(#arrow)" />
<line x1="404" y1="552" x2="384" y2="691"
      style="stroke: darkgray;" marker-end="url(#arrow)" />
<line x1="320" y1="408" x2="404" y2="552"
      style="stroke: darkgray;" marker-end="url(#arrow)" />
<line x1="404" y1="552" x2="480" y2="674"
      style="stroke: darkgray;" marker-end="url(#arrow)" />
<circle cx="333" cy="484" r="3" fill="blue" />
<line x1="320" y1="408" x2="333" y2="484"
      style="stroke: darkgray;" marker-end="url(#arrow)" />
<circle cx="617" cy="507" r="3" fill="blue" />
<line x1="575" y1="422" x2="617" y2="507"
      style="stroke: darkgray;" marker-end="url(#arrow)" />
<circle cx="575" cy="422" r="3" fill="blue" />
<circle cx="460" cy="662" r="3" fill="blue" />
<line x1="460" y1="662" x2="384" y2="691"
      style="stroke: darkgray;" marker-end="url(#arrow)" />
<line x1="460" y1="662" x2="480" y2="674"
      style="stroke: darkgray;" marker-end="url(#arrow)" />
<circle cx="384" cy="691" r="3" fill="blue" />
<line x1="480" y1="674" x2="384" y2="691"
      style="stroke: darkgray;" marker-end="url(#arrow)" />
<circle cx="320" cy="408" r="3" fill="blue" />
<circle cx="405" cy="192" r="3" fill="blue" />
<line x1="405" y1="192" x2="420" y2="223"
      style="stroke: darkgray;" marker-end="url(#arrow)" />
<circle cx="480" cy="674" r="3" fill="blue" />
<circle cx="142" cy="341" r="3" fill="blue" />
<circle cx="420" cy="223" r="3" fill="blue" />
</svg>
