<?xml version="1.0" standalone="no"?>
<!DOCTYPE svg PUBLIC "-//W3C//DTD SVG 1.1//EN"
  "http://www.w3.org/Graphics/SVG/1.1/DTD/svg11.dtd">
<svg width="800" height="800"
     xmlns="http://www.w3.org/2000/svg" version="1.1">
<rect x="0" y="0" width="100%" height="100%" fill="white" />
<defs>
<marker id="arrow" markerWidth="10" markerHeight="10" refX="10" refY="3" orient="auto">
<path d="M0,0 L0,6 L9,3 z"/>
</marker>
</defs>
<circle cx="660" cy="393" r="3" fill="blue" />
<circle cx="592" cy="568" r="3" fill="blue" />
<circle cx="429" cy="460" r="3" fill="blue" />
<circle cx="102" cy="522" r="3" fill="blue" />
<circle cx="469" cy="469" r="3" fill="blue" />
<circle cx="288" cy="697" r="3" fill="blue" />
<circle cx="421" cy="259" r="3" fill="blue" />
<circle cx="254" cy="110" r="3" fill="blue" />
<circle cx="142" cy="230" r="3" fill="blue" />
<circle cx="411" cy="670" r="3" fill="blue" />
<circle cx="198" cy="604" r="3" fill="blue" />
<circle cx="556" cy="614" r="3" fill="blue" />
<circle cx="320" cy="401" r="3" fill="blue" />
<circle cx="150" cy="272" r="3" fill="blue" />
<circle cx="162" cy="452" r="3" fill="blue" />
<circle cx="563" cy="123" r="3" fill="blue" />
<circle cx="146" cy="455" r="3" fill="blue" />
<circle cx="591" cy="475" r="3" fill="blue" />
<circle cx="216" cy="594" r="3" fill="blue" />
<circle cx="298" cy="586" r="3" fill="blue" />
<circle cx="364" cy="486" r="3" fill="blue" />
<circle cx="583" cy="685" r="3" fill="blue" />
<circle cx="646" cy="138" r="3" fill="blue" />
<circle cx="696" cy="688" r="3" fill="blue" />
<circle cx="269" cy="407" r="3" fill="blue" />
<circle cx="658" cy="367" r="3" fill="blue" />
<circle cx="311" cy="515" r="3" fill="blue" />
<circle cx="281" cy="531" r="3" fill="blue" />
<circle cx="216" cy="332" r="3" fill="blue" />
<circle cx="104" cy="279" r="3" fill="blue" />
<circle cx="684" cy="567" r="3" fill="blue" />
<circle cx="303" cy="130" r="3" fill="blue" />
<circle cx="323" cy="194" r="3" fill="blue" />
<circle cx="506" cy="439" r="3" fill="blue" />
<circle cx="689" cy="104" r="3" fill="blue" />
<circle cx="325" cy="353" r="3" fill="blue" />
<circle cx="491" cy="209" r="3" fill="blue" />
<circle cx="339" cy="437" r="3" fill="blue" />
<circle cx="247" cy="335" r="3" fill="blue" />
<circle cx="425" cy="416" r="3" fill="blue" />
<circle cx="643" cy="384" r="3" fill="blue" />
<circle cx="684" cy="255" r="3" fill="blue" />
<circle cx="199" cy="265" r="3" fill="blue" />
<circle cx="687" cy="316" r="3" fill="blue" />
<circle cx="497" cy="691" r="3" fill="blue" />
<circle cx="495" cy="482" r="3" fill="blue" />
<circle cx="559" cy="699" r="3" fill="blue" />
<circle cx="512" cy="182" r="3" fill="blue" />
<circle cx="193" cy="319" r="3" fill="blue" />
<circle cx="521" cy="183" r="3" fill="blue" />
<circle cx="660" cy="393" r="3" fill="blue" />
<line x1="658" y1="367" x2="660" y2="393"
      style="stroke: red;"   />
<line x1="643" y1="384" x2="660" y2="393"
      style="stroke: red;"   />
<line x1="687" y1="316" x2="660" y2="393"
      style="stroke: red;"   />
<circle cx="592" cy="568" r="3" fill="blue" />
<circle cx="429" cy="460" r="3" fill="blue" />
<circle cx="102" cy="522" r="3" fill="blue" />
<circle cx="469" cy="469" r="3" fill="blue" />
<circle cx="288" cy="697" r="3" fill="blue" />
<circle cx="421" cy="259" r="3" fill="blue" />
<circle cx="254" cy="110" r="3" fill="blue" />
<circle cx="142" cy="230" r="3" fill="blue" />
<circle cx="411" cy="670" r="3" fill="blue" />
<circle cx="198" cy="604" r="3" fill="blue" />
<circle cx="556" cy="614" r="3" fill="blue" />
<circle cx="320" cy="401" r="3" fill="blue" />
<circle cx="150" cy="272" r="3" fill="blue" />
<circle cx="162" cy="452" r="3" fill="blue" />
<circle cx="563" cy="123" r="3" fill="blue" />
<circle cx="146" cy="455" r="3" fill="blue" />
<circle cx="591" cy="475" r="3" fill="blue" />
<circle cx="216" cy="594" r="3" fill="blue" />
<circle cx="298" cy="586" r="3" fill="blue" />
<circle cx="364" cy="486" r="3" fill="blue" />
<circle cx="583" cy="685" r="3" fill="blue" />
<circle cx="646" cy="138" r="3" fill="blue" />
<circle cx="696" cy="688" r="3" fill="blue" />
<circle cx="269" cy="407" r="3" fill="blue" />
<circle cx="658" cy="367" r="3" fill="blue" />
<circle cx="311" cy="515" r="3" fill="blue" />
<circle cx="281" cy="531" r="3" fill="blue" />
<circle cx="216" cy="332" r="3" fill="blue" />
<circle cx="104" cy="279" r="3" fill="blue" />
<circle cx="684" cy="567" r="3" fill="blue" />
<circle cx="303" cy="130" r="3" fill="blue" />
<circle cx="323" cy="194" r="3" fill="blue" />
<circle cx="506" cy="439" r="3" fill="blue" />
<circle cx="689" cy="104" r="3" fill="blue" />
<circle cx="325" cy="353" r="3" fill="blue" />
<circle cx="491" cy="209" r="3" fill="blue" />
<circle cx="339" cy="437" r="3" fill="blue" />
<circle cx="247" cy="335" r="3" fill="blue" />
<circle cx="425" cy="416" r="3" fill="blue" />
<circle cx="643" cy="384" r="3" fill="blue" />
<circle cx="684" cy="255" r="3" fill="blue" />
<line x1="684" y1="255" x2="687" y2="316"
      style="stroke: red;"   />
<circle cx="199" cy="265" r="3" fill="blue" />
<circle cx="687" cy="316" r="3" fill="blue" />
<circle cx="497" cy="691" r="3" fill="blue" />
<circle cx="495" cy="482" r="3" fill="blue" />
<circle cx="559" cy="699" r="3" fill="blue" />
<circle cx="512" cy="182" r="3" fill="blue" />
<circle cx="193" cy="319" r="3" fill="blue" />
<circle cx="521" cy="183" r="3" fill="blue" />
</svg>
