<?xml version="1.0" standalone="no"?>
<!DOCTYPE svg PUBLIC "-//W3C//DTD SVG 1.1//EN"
  "http://www.w3.org/Graphics/SVG/1.1/DTD/svg11.dtd">
<svg width="800" height="800"
     xmlns="http://www.w3.org/2000/svg" version="1.1">
<rect x="0" y="0" width="100%" height="100%" fill="white" />
<defs>
<marker id="arrow" markerWidth="10" markerHeight="10" refX="10" refY="3" orient="auto">
<path d="M0,0 L0,6 L9,3 z"/>
</marker>
</defs>
<circle cx="528" cy="613" r="3" fill="blue" />
<circle cx="577" cy="304" r="3" fill="blue" />
<circle cx="672" cy="387" r="3" fill="blue" />
<circle cx="216" cy="562" r="3" fill="blue" />
<circle cx="447" cy="161" r="3" fill="blue" />
<circle cx="502" cy="554" r="3" fill="blue" />
<circle cx="227" cy="615" r="3" fill="blue" />
<circle cx="657" cy="285" r="3" fill="blue" />
<circle cx="622" cy="589" r="3" fill="blue" />
<circle cx="428" cy="543" r="3" fill="blue" />
<circle cx="534" cy="279" r="3" fill="blue" />
<circle cx="566" cy="458" r="3" fill="blue" />
<circle cx="627" cy="656" r="3" fill="blue" />
<circle cx="524" cy="650" r="3" fill="blue" />
<circle cx="636" cy="494" r="3" fill="blue" />
<circle cx="272" cy="464" r="3" fill="blue" />
<circle cx="407" cy="149" r="3" fill="blue" />
<circle cx="668" cy="380" r="3" fill="blue" />
<circle cx="436" cy="185" r="3" fill="blue" />
<circle cx="243" cy="184" r="3" fill="blue" />
<circle cx="246" cy="645" r="3" fill="blue" />
<circle cx="639" cy="374" r="3" fill="blue" />
<circle cx="560" cy="596" r="3" fill="blue" />
<circle cx="559" cy="483" r="3" fill="blue" />
<circle cx="486" cy="287" r="3" fill="blue" />
<circle cx="326" cy="321" r="3" fill="blue" />
<circle cx="467" cy="192" r="3" fill="blue" />
<circle cx="679" cy="394" r="3" fill="blue" />
<circle cx="149" cy="503" r="3" fill="blue" />
<circle cx="344" cy="685" r="3" fill="blue" />
<circle cx="298" cy="517" r="3" fill="blue" />
<circle cx="449" cy="606" r="3" fill="blue" />
<circle cx="566" cy="418" r="3" fill="blue" />
<circle cx="287" cy="303" r="3" fill="blue" />
<circle cx="503" cy="430" r="3" fill="blue" />
<circle cx="388" cy="650" r="3" fill="blue" />
<circle cx="375" cy="327" r="3" fill="blue" />
<circle cx="325" cy="236" r="3" fill="blue" />
<circle cx="224" cy="185" r="3" fill="blue" />
<circle cx="619" cy="610" r="3" fill="blue" />
<circle cx="373" cy="246" r="3" fill="blue" />
<circle cx="232" cy="140" r="3" fill="blue" />
<circle cx="339" cy="211" r="3" fill="blue" />
<circle cx="435" cy="388" r="3" fill="blue" />
<circle cx="615" cy="680" r="3" fill="blue" />
<circle cx="373" cy="214" r="3" fill="blue" />
<circle cx="497" cy="123" r="3" fill="blue" />
<circle cx="120" cy="364" r="3" fill="blue" />
<circle cx="441" cy="308" r="3" fill="blue" />
<circle cx="568" cy="245" r="3" fill="blue" />
<circle cx="528" cy="613" r="3" fill="blue" />
<line x1="502" y1="554" x2="528" y2="613"
      style="stroke: red;"   />
<line x1="528" y1="613" x2="524" y2="650"
      style="stroke: red;"   />
<line x1="560" y1="596" x2="528" y2="613"
      style="stroke: red;"   />
<line x1="449" y1="606" x2="528" y2="613"
      style="stroke: red;"   />
<circle cx="577" cy="304" r="3" fill="blue" />
<line x1="657" y1="285" x2="577" y2="304"
      style="stroke: darkgray;"   />
<line x1="534" y1="279" x2="577" y2="304"
      style="stroke: darkgray;"   />
<line x1="568" y1="245" x2="577" y2="304"
      style="stroke: darkgray;"   />
<circle cx="672" cy="387" r="3" fill="blue" />
<line x1="668" y1="380" x2="672" y2="387"
      style="stroke: darkgray;"   />
<line x1="639" y1="374" x2="672" y2="387"
      style="stroke: darkgray;"   />
<line x1="672" y1="387" x2="679" y2="394"
      style="stroke: darkgray;"   />
<circle cx="216" cy="562" r="3" fill="blue" />
<line x1="216" y1="562" x2="227" y2="615"
      style="stroke: darkgray;"   />
<line x1="216" y1="562" x2="246" y2="645"
      style="stroke: darkgray;"   />
<line x1="149" y1="503" x2="216" y2="562"
      style="stroke: darkgray;"   />
<circle cx="447" cy="161" r="3" fill="blue" />
<line x1="407" y1="149" x2="447" y2="161"
      style="stroke: darkgray;"   />
<line x1="447" y1="161" x2="436" y2="185"
      style="stroke: darkgray;"   />
<line x1="447" y1="161" x2="467" y2="192"
      style="stroke: darkgray;"   />
<line x1="497" y1="123" x2="447" y2="161"
      style="stroke: darkgray;"   />
<circle cx="502" cy="554" r="3" fill="blue" />
<line x1="428" y1="543" x2="502" y2="554"
      style="stroke: darkgray;"   />
<line x1="502" y1="554" x2="560" y2="596"
      style="stroke: darkgray;"   />
<line x1="502" y1="554" x2="449" y2="606"
      style="stroke: darkgray;"   />
<circle cx="227" cy="615" r="3" fill="blue" />
<line x1="227" y1="615" x2="246" y2="645"
      style="stroke: darkgray;"   />
<circle cx="657" cy="285" r="3" fill="blue" />
<circle cx="622" cy="589" r="3" fill="blue" />
<line x1="622" y1="589" x2="627" y2="656"
      style="stroke: darkgray;"   />
<line x1="622" y1="589" x2="560" y2="596"
      style="stroke: red;"   />
<line x1="622" y1="589" x2="619" y2="610"
      style="stroke: darkgray;"   />
<circle cx="428" cy="543" r="3" fill="blue" />
<line x1="428" y1="543" x2="449" y2="606"
      style="stroke: red;"   />
<circle cx="534" cy="279" r="3" fill="blue" />
<line x1="534" y1="279" x2="486" y2="287"
      style="stroke: darkgray;"   />
<line x1="568" y1="245" x2="534" y2="279"
      style="stroke: darkgray;"   />
<circle cx="566" cy="458" r="3" fill="blue" />
<line x1="566" y1="458" x2="636" y2="494"
      style="stroke: darkgray;"   />
<line x1="566" y1="458" x2="559" y2="483"
      style="stroke: darkgray;"   />
<line x1="566" y1="418" x2="566" y2="458"
      style="stroke: darkgray;"   />
<line x1="503" y1="430" x2="566" y2="458"
      style="stroke: darkgray;"   />
<circle cx="627" cy="656" r="3" fill="blue" />
<line x1="560" y1="596" x2="627" y2="656"
      style="stroke: red;"   />
<line x1="619" y1="610" x2="627" y2="656"
      style="stroke: darkgray;"   />
<line x1="627" y1="656" x2="615" y2="680"
      style="stroke: darkgray;"   />
<circle cx="524" cy="650" r="3" fill="blue" />
<line x1="560" y1="596" x2="524" y2="650"
      style="stroke: darkgray;"   />
<line x1="449" y1="606" x2="524" y2="650"
      style="stroke: darkgray;"   />
<circle cx="636" cy="494" r="3" fill="blue" />
<line x1="559" y1="483" x2="636" y2="494"
      style="stroke: darkgray;"   />
<circle cx="272" cy="464" r="3" fill="blue" />
<line x1="272" y1="464" x2="298" y2="517"
      style="stroke: darkgray;"   />
<circle cx="407" cy="149" r="3" fill="blue" />
<line x1="407" y1="149" x2="436" y2="185"
      style="stroke: darkgray;"   />
<line x1="407" y1="149" x2="467" y2="192"
      style="stroke: darkgray;"   />
<line x1="407" y1="149" x2="373" y2="214"
      style="stroke: darkgray;"   />
<circle cx="668" cy="380" r="3" fill="blue" />
<line x1="639" y1="374" x2="668" y2="380"
      style="stroke: darkgray;"   />
<line x1="668" y1="380" x2="679" y2="394"
      style="stroke: darkgray;"   />
<circle cx="436" cy="185" r="3" fill="blue" />
<line x1="436" y1="185" x2="467" y2="192"
      style="stroke: darkgray;"   />
<line x1="436" y1="185" x2="373" y2="246"
      style="stroke: darkgray;"   />
<line x1="436" y1="185" x2="373" y2="214"
      style="stroke: darkgray;"   />
<line x1="497" y1="123" x2="436" y2="185"
      style="stroke: darkgray;"   />
<circle cx="243" cy="184" r="3" fill="blue" />
<line x1="243" y1="184" x2="224" y2="185"
      style="stroke: darkgray;"   />
<line x1="232" y1="140" x2="243" y2="184"
      style="stroke: darkgray;"   />
<circle cx="246" cy="645" r="3" fill="blue" />
<circle cx="639" cy="374" r="3" fill="blue" />
<line x1="639" y1="374" x2="679" y2="394"
      style="stroke: darkgray;"   />
<line x1="639" y1="374" x2="566" y2="418"
      style="stroke: darkgray;"   />
<circle cx="560" cy="596" r="3" fill="blue" />
<line x1="560" y1="596" x2="619" y2="610"
      style="stroke: red;"   />
<circle cx="559" cy="483" r="3" fill="blue" />
<line x1="566" y1="418" x2="559" y2="483"
      style="stroke: darkgray;"   />
<line x1="503" y1="430" x2="559" y2="483"
      style="stroke: darkgray;"   />
<circle cx="486" cy="287" r="3" fill="blue" />
<line x1="486" y1="287" x2="441" y2="308"
      style="stroke: darkgray;"   />
<circle cx="326" cy="321" r="3" fill="blue" />
<line x1="287" y1="303" x2="326" y2="321"
      style="stroke: darkgray;"   />
<line x1="326" y1="321" x2="375" y2="327"
      style="stroke: darkgray;"   />
<line x1="325" y1="236" x2="326" y2="321"
      style="stroke: darkgray;"   />
<line x1="373" y1="246" x2="326" y2="321"
      style="stroke: darkgray;"   />
<circle cx="467" cy="192" r="3" fill="blue" />
<line x1="497" y1="123" x2="467" y2="192"
      style="stroke: darkgray;"   />
<circle cx="679" cy="394" r="3" fill="blue" />
<circle cx="149" cy="503" r="3" fill="blue" />
<circle cx="344" cy="685" r="3" fill="blue" />
<line x1="388" y1="650" x2="344" y2="685"
      style="stroke: red;"   />
<circle cx="298" cy="517" r="3" fill="blue" />
<circle cx="449" cy="606" r="3" fill="blue" />
<line x1="449" y1="606" x2="388" y2="650"
      style="stroke: red;"   />
<circle cx="566" cy="418" r="3" fill="blue" />
<line x1="566" y1="418" x2="503" y2="430"
      style="stroke: darkgray;"   />
<circle cx="287" cy="303" r="3" fill="blue" />
<line x1="325" y1="236" x2="287" y2="303"
      style="stroke: darkgray;"   />
<circle cx="503" cy="430" r="3" fill="blue" />
<line x1="435" y1="388" x2="503" y2="430"
      style="stroke: darkgray;"   />
<circle cx="388" cy="650" r="3" fill="blue" />
<circle cx="375" cy="327" r="3" fill="blue" />
<line x1="373" y1="246" x2="375" y2="327"
      style="stroke: darkgray;"   />
<line x1="375" y1="327" x2="435" y2="388"
      style="stroke: darkgray;"   />
<line x1="441" y1="308" x2="375" y2="327"
      style="stroke: darkgray;"   />
<circle cx="325" cy="236" r="3" fill="blue" />
<line x1="325" y1="236" x2="373" y2="246"
      style="stroke: darkgray;"   />
<line x1="339" y1="211" x2="325" y2="236"
      style="stroke: darkgray;"   />
<line x1="373" y1="214" x2="325" y2="236"
      style="stroke: darkgray;"   />
<circle cx="224" cy="185" r="3" fill="blue" />
<line x1="232" y1="140" x2="224" y2="185"
      style="stroke: darkgray;"   />
<circle cx="619" cy="610" r="3" fill="blue" />
<line x1="619" y1="610" x2="615" y2="680"
      style="stroke: red;"   />
<circle cx="373" cy="246" r="3" fill="blue" />
<line x1="339" y1="211" x2="373" y2="246"
      style="stroke: darkgray;"   />
<line x1="373" y1="214" x2="373" y2="246"
      style="stroke: darkgray;"   />
<circle cx="232" cy="140" r="3" fill="blue" />
<circle cx="339" cy="211" r="3" fill="blue" />
<line x1="339" y1="211" x2="373" y2="214"
      style="stroke: darkgray;"   />
<circle cx="435" cy="388" r="3" fill="blue" />
<line x1="441" y1="308" x2="435" y2="388"
      style="stroke: darkgray;"   />
<circle cx="615" cy="680" r="3" fill="blue" />
<circle cx="373" cy="214" r="3" fill="blue" />
<circle cx="497" cy="123" r="3" fill="blue" />
<circle cx="120" cy="364" r="3" fill="blue" />
<circle cx="441" cy="308" r="3" fill="blue" />
<circle cx="568" cy="245" r="3" fill="blue" />
</svg>
