<?xml version="1.0" standalone="no"?>
<!DOCTYPE svg PUBLIC "-//W3C//DTD SVG 1.1//EN"
  "http://www.w3.org/Graphics/SVG/1.1/DTD/svg11.dtd">
<svg width="800" height="800"
     xmlns="http://www.w3.org/2000/svg" version="1.1">
<rect x="0" y="0" width="100%" height="100%" fill="white" />
<defs>
<marker id="arrow" markerWidth="10" markerHeight="10" refX="10" refY="3" orient="auto">
<path d="M0,0 L0,6 L9,3 z"/>
</marker>
</defs>
<circle cx="516" cy="357" r="3" fill="blue" />
<circle cx="574" cy="267" r="3" fill="blue" />
<circle cx="117" cy="580" r="3" fill="blue" />
<circle cx="402" cy="596" r="3" fill="blue" />
<circle cx="227" cy="560" r="3" fill="blue" />
<circle cx="298" cy="281" r="3" fill="blue" />
<circle cx="221" cy="521" r="3" fill="blue" />
<circle cx="678" cy="550" r="3" fill="blue" />
<circle cx="690" cy="454" r="3" fill="blue" />
<circle cx="489" cy="509" r="3" fill="blue" />
<circle cx="246" cy="692" r="3" fill="blue" />
<circle cx="584" cy="419" r="3" fill="blue" />
<circle cx="283" cy="574" r="3" fill="blue" />
<circle cx="394" cy="536" r="3" fill="blue" />
<circle cx="189" cy="610" r="3" fill="blue" />
<circle cx="548" cy="606" r="3" fill="blue" />
<circle cx="268" cy="422" r="3" fill="blue" />
<circle cx="173" cy="285" r="3" fill="blue" />
<circle cx="302" cy="475" r="3" fill="blue" />
<circle cx="182" cy="429" r="3" fill="blue" />
<circle cx="336" cy="381" r="3" fill="blue" />
<circle cx="610" cy="458" r="3" fill="blue" />
<circle cx="202" cy="589" r="3" fill="blue" />
<circle cx="309" cy="193" r="3" fill="blue" />
<circle cx="343" cy="698" r="3" fill="blue" />
<circle cx="602" cy="490" r="3" fill="blue" />
<circle cx="690" cy="486" r="3" fill="blue" />
<circle cx="209" cy="274" r="3" fill="blue" />
<circle cx="360" cy="504" r="3" fill="blue" />
<circle cx="110" cy="450" r="3" fill="blue" />
<circle cx="414" cy="558" r="3" fill="blue" />
<circle cx="356" cy="583" r="3" fill="blue" />
<circle cx="280" cy="429" r="3" fill="blue" />
<circle cx="169" cy="482" r="3" fill="blue" />
<circle cx="205" cy="252" r="3" fill="blue" />
<circle cx="212" cy="442" r="3" fill="blue" />
<circle cx="534" cy="122" r="3" fill="blue" />
<circle cx="200" cy="637" r="3" fill="blue" />
<circle cx="611" cy="409" r="3" fill="blue" />
<circle cx="130" cy="255" r="3" fill="blue" />
<circle cx="407" cy="632" r="3" fill="blue" />
<circle cx="645" cy="398" r="3" fill="blue" />
<circle cx="419" cy="155" r="3" fill="blue" />
<circle cx="572" cy="680" r="3" fill="blue" />
<circle cx="560" cy="583" r="3" fill="blue" />
<circle cx="430" cy="275" r="3" fill="blue" />
<circle cx="442" cy="686" r="3" fill="blue" />
<circle cx="158" cy="622" r="3" fill="blue" />
<circle cx="415" cy="228" r="3" fill="blue" />
<circle cx="405" cy="521" r="3" fill="blue" />
<circle cx="516" cy="357" r="3" fill="blue" />
<circle cx="574" cy="267" r="3" fill="blue" />
<circle cx="117" cy="580" r="3" fill="blue" />
<circle cx="402" cy="596" r="3" fill="blue" />
<circle cx="227" cy="560" r="3" fill="blue" />
<circle cx="298" cy="281" r="3" fill="blue" />
<circle cx="221" cy="521" r="3" fill="blue" />
<circle cx="678" cy="550" r="3" fill="blue" />
<circle cx="690" cy="454" r="3" fill="blue" />
<circle cx="489" cy="509" r="3" fill="blue" />
<circle cx="246" cy="692" r="3" fill="blue" />
<circle cx="584" cy="419" r="3" fill="blue" />
<circle cx="283" cy="574" r="3" fill="blue" />
<circle cx="394" cy="536" r="3" fill="blue" />
<circle cx="189" cy="610" r="3" fill="blue" />
<circle cx="548" cy="606" r="3" fill="blue" />
<circle cx="268" cy="422" r="3" fill="blue" />
<circle cx="173" cy="285" r="3" fill="blue" />
<circle cx="302" cy="475" r="3" fill="blue" />
<circle cx="182" cy="429" r="3" fill="blue" />
<circle cx="336" cy="381" r="3" fill="blue" />
<circle cx="610" cy="458" r="3" fill="blue" />
<circle cx="202" cy="589" r="3" fill="blue" />
<circle cx="309" cy="193" r="3" fill="blue" />
<circle cx="343" cy="698" r="3" fill="blue" />
<circle cx="602" cy="490" r="3" fill="blue" />
<circle cx="690" cy="486" r="3" fill="blue" />
<circle cx="209" cy="274" r="3" fill="blue" />
<circle cx="360" cy="504" r="3" fill="blue" />
<circle cx="110" cy="450" r="3" fill="blue" />
<circle cx="414" cy="558" r="3" fill="blue" />
<circle cx="356" cy="583" r="3" fill="blue" />
<circle cx="280" cy="429" r="3" fill="blue" />
<circle cx="169" cy="482" r="3" fill="blue" />
<circle cx="205" cy="252" r="3" fill="blue" />
<circle cx="212" cy="442" r="3" fill="blue" />
<circle cx="534" cy="122" r="3" fill="blue" />
<circle cx="200" cy="637" r="3" fill="blue" />
<circle cx="611" cy="409" r="3" fill="blue" />
<circle cx="130" cy="255" r="3" fill="blue" />
<circle cx="407" cy="632" r="3" fill="blue" />
<circle cx="645" cy="398" r="3" fill="blue" />
<circle cx="419" cy="155" r="3" fill="blue" />
<circle cx="572" cy="680" r="3" fill="blue" />
<circle cx="560" cy="583" r="3" fill="blue" />
<circle cx="430" cy="275" r="3" fill="blue" />
<circle cx="442" cy="686" r="3" fill="blue" />
<circle cx="158" cy="622" r="3" fill="blue" />
<circle cx="415" cy="228" r="3" fill="blue" />
<circle cx="405" cy="521" r="3" fill="blue" />
</svg>
