<?xml version="1.0" standalone="no"?>
<!DOCTYPE svg PUBLIC "-//W3C//DTD SVG 1.1//EN"
  "http://www.w3.org/Graphics/SVG/1.1/DTD/svg11.dtd">
<svg width="800" height="800"
     xmlns="http://www.w3.org/2000/svg" version="1.1">
<rect x="0" y="0" width="100%" height="100%" fill="white" />
<defs>
<marker id="arrow" markerWidth="10" markerHeight="10" refX="10" refY="3" orient="auto">
<path d="M0,0 L0,6 L9,3 z"/>
</marker>
</defs>
<circle cx="660" cy="393" r="3" fill="blue" />
<circle cx="592" cy="568" r="3" fill="blue" />
<circle cx="429" cy="460" r="3" fill="blue" />
<circle cx="102" cy="522" r="3" fill="blue" />
<circle cx="469" cy="469" r="3" fill="blue" />
<circle cx="288" cy="697" r="3" fill="blue" />
<circle cx="421" cy="259" r="3" fill="blue" />
<circle cx="254" cy="110" r="3" fill="blue" />
<circle cx="142" cy="230" r="3" fill="blue" />
<circle cx="411" cy="670" r="3" fill="blue" />
<circle cx="198" cy="604" r="3" fill="blue" />
<circle cx="556" cy="614" r="3" fill="blue" />
<circle cx="320" cy="401" r="3" fill="blue" />
<circle cx="150" cy="272" r="3" fill="blue" />
<circle cx="162" cy="452" r="3" fill="blue" />
<circle cx="563" cy="123" r="3" fill="blue" />
<circle cx="146" cy="455" r="3" fill="blue" />
<circle cx="591" cy="475" r="3" fill="blue" />
<circle cx="216" cy="594" r="3" fill="blue" />
<circle cx="298" cy="586" r="3" fill="blue" />
<circle cx="364" cy="486" r="3" fill="blue" />
<circle cx="583" cy="685" r="3" fill="blue" />
<circle cx="646" cy="138" r="3" fill="blue" />
<circle cx="696" cy="688" r="3" fill="blue" />
<circle cx="269" cy="407" r="3" fill="blue" />
<circle cx="658" cy="367" r="3" fill="blue" />
<circle cx="311" cy="515" r="3" fill="blue" />
<circle cx="281" cy="531" r="3" fill="blue" />
<circle cx="216" cy="332" r="3" fill="blue" />
<circle cx="104" cy="279" r="3" fill="blue" />
<circle cx="684" cy="567" r="3" fill="blue" />
<circle cx="303" cy="130" r="3" fill="blue" />
<circle cx="323" cy="194" r="3" fill="blue" />
<circle cx="506" cy="439" r="3" fill="blue" />
<circle cx="689" cy="104" r="3" fill="blue" />
<circle cx="325" cy="353" r="3" fill="blue" />
<circle cx="491" cy="209" r="3" fill="blue" />
<circle cx="339" cy="437" r="3" fill="blue" />
<circle cx="247" cy="335" r="3" fill="blue" />
<circle cx="425" cy="416" r="3" fill="blue" />
<circle cx="643" cy="384" r="3" fill="blue" />
<circle cx="684" cy="255" r="3" fill="blue" />
<circle cx="199" cy="265" r="3" fill="blue" />
<circle cx="687" cy="316" r="3" fill="blue" />
<circle cx="497" cy="691" r="3" fill="blue" />
<circle cx="495" cy="482" r="3" fill="blue" />
<circle cx="559" cy="699" r="3" fill="blue" />
<circle cx="512" cy="182" r="3" fill="blue" />
<circle cx="193" cy="319" r="3" fill="blue" />
<circle cx="521" cy="183" r="3" fill="blue" />
<circle cx="660" cy="393" r="3" fill="blue" />
<line x1="658" y1="367" x2="660" y2="393"
      style="stroke: red;"   />
<line x1="643" y1="384" x2="660" y2="393"
      style="stroke: red;"   />
<line x1="687" y1="316" x2="660" y2="393"
      style="stroke: red;"   />
<circle cx="592" cy="568" r="3" fill="blue" />
<line x1="592" y1="568" x2="556" y2="614"
      style="stroke: red;"   />
<circle cx="429" cy="460" r="3" fill="blue" />
<line x1="429" y1="460" x2="469" y2="469"
      style="stroke: red;"   />
<line x1="429" y1="460" x2="364" y2="486"
      style="stroke: red;"   />
<line x1="506" y1="439" x2="429" y2="460"
      style="stroke: red;"   />
<line x1="425" y1="416" x2="429" y2="460"
      style="stroke: red;"   />
<line x1="429" y1="460" x2="495" y2="482"
      style="stroke: red;"   />
<circle cx="102" cy="522" r="3" fill="blue" />
<line x1="146" y1="455" x2="102" y2="522"
      style="stroke: red;"   />
<circle cx="469" cy="469" r="3" fill="blue" />
<circle cx="288" cy="697" r="3" fill="blue" />
<circle cx="421" cy="259" r="3" fill="blue" />
<line x1="491" y1="209" x2="421" y2="259"
      style="stroke: red;"   />
<circle cx="254" cy="110" r="3" fill="blue" />
<line x1="254" y1="110" x2="303" y2="130"
      style="stroke: red;"   />
<circle cx="142" cy="230" r="3" fill="blue" />
<line x1="142" y1="230" x2="199" y2="265"
      style="stroke: red;"   />
<circle cx="411" cy="670" r="3" fill="blue" />
<line x1="411" y1="670" x2="497" y2="691"
      style="stroke: red;"   />
<circle cx="198" cy="604" r="3" fill="blue" />
<line x1="216" y1="594" x2="198" y2="604"
      style="stroke: red;"   />
<circle cx="556" cy="614" r="3" fill="blue" />
<line x1="556" y1="614" x2="583" y2="685"
      style="stroke: red;"   />
<line x1="556" y1="614" x2="559" y2="699"
      style="stroke: red;"   />
<circle cx="320" cy="401" r="3" fill="blue" />
<line x1="320" y1="401" x2="339" y2="437"
      style="stroke: red;"   />
<circle cx="150" cy="272" r="3" fill="blue" />
<line x1="150" y1="272" x2="216" y2="332"
      style="stroke: red;"   />
<line x1="150" y1="272" x2="104" y2="279"
      style="stroke: red;"   />
<circle cx="162" cy="452" r="3" fill="blue" />
<line x1="162" y1="452" x2="146" y2="455"
      style="stroke: red;"   />
<circle cx="563" cy="123" r="3" fill="blue" />
<line x1="563" y1="123" x2="646" y2="138"
      style="stroke: red;"   />
<line x1="563" y1="123" x2="512" y2="182"
      style="stroke: red;"   />
<circle cx="146" cy="455" r="3" fill="blue" />
<circle cx="591" cy="475" r="3" fill="blue" />
<circle cx="216" cy="594" r="3" fill="blue" />
<line x1="298" y1="586" x2="216" y2="594"
      style="stroke: red;"   />
<circle cx="298" cy="586" r="3" fill="blue" />
<line x1="311" y1="515" x2="298" y2="586"
      style="stroke: red;"   />
<circle cx="364" cy="486" r="3" fill="blue" />
<line x1="364" y1="486" x2="311" y2="515"
      style="stroke: red;"   />
<line x1="339" y1="437" x2="364" y2="486"
      style="stroke: red;"   />
<circle cx="583" cy="685" r="3" fill="blue" />
<line x1="583" y1="685" x2="497" y2="691"
      style="stroke: red;"   />
<circle cx="646" cy="138" r="3" fill="blue" />
<line x1="689" y1="104" x2="646" y2="138"
      style="stroke: red;"   />
<circle cx="696" cy="688" r="3" fill="blue" />
<circle cx="269" cy="407" r="3" fill="blue" />
<line x1="269" y1="407" x2="339" y2="437"
      style="stroke: red;"   />
<line x1="247" y1="335" x2="269" y2="407"
      style="stroke: red;"   />
<circle cx="658" cy="367" r="3" fill="blue" />
<circle cx="311" cy="515" r="3" fill="blue" />
<line x1="311" y1="515" x2="281" y2="531"
      style="stroke: red;"   />
<circle cx="281" cy="531" r="3" fill="blue" />
<circle cx="216" cy="332" r="3" fill="blue" />
<line x1="216" y1="332" x2="247" y2="335"
      style="stroke: red;"   />
<circle cx="104" cy="279" r="3" fill="blue" />
<circle cx="684" cy="567" r="3" fill="blue" />
<circle cx="303" cy="130" r="3" fill="blue" />
<line x1="303" y1="130" x2="323" y2="194"
      style="stroke: red;"   />
<circle cx="323" cy="194" r="3" fill="blue" />
<circle cx="506" cy="439" r="3" fill="blue" />
<circle cx="689" cy="104" r="3" fill="blue" />
<circle cx="325" cy="353" r="3" fill="blue" />
<line x1="325" y1="353" x2="339" y2="437"
      style="stroke: red;"   />
<circle cx="491" cy="209" r="3" fill="blue" />
<line x1="512" y1="182" x2="491" y2="209"
      style="stroke: red;"   />
<line x1="521" y1="183" x2="491" y2="209"
      style="stroke: red;"   />
<circle cx="339" cy="437" r="3" fill="blue" />
<circle cx="247" cy="335" r="3" fill="blue" />
<line x1="199" y1="265" x2="247" y2="335"
      style="stroke: red;"   />
<line x1="193" y1="319" x2="247" y2="335"
      style="stroke: red;"   />
<circle cx="425" cy="416" r="3" fill="blue" />
<circle cx="643" cy="384" r="3" fill="blue" />
<circle cx="684" cy="255" r="3" fill="blue" />
<line x1="684" y1="255" x2="687" y2="316"
      style="stroke: red;"   />
<circle cx="199" cy="265" r="3" fill="blue" />
<circle cx="687" cy="316" r="3" fill="blue" />
<circle cx="497" cy="691" r="3" fill="blue" />
<circle cx="495" cy="482" r="3" fill="blue" />
<circle cx="559" cy="699" r="3" fill="blue" />
<circle cx="512" cy="182" r="3" fill="blue" />
<circle cx="193" cy="319" r="3" fill="blue" />
<circle cx="521" cy="183" r="3" fill="blue" />
</svg>
