<?xml version="1.0" standalone="no"?>
<!DOCTYPE svg PUBLIC "-//W3C//DTD SVG 1.1//EN"
  "http://www.w3.org/Graphics/SVG/1.1/DTD/svg11.dtd">
<svg width="800" height="800"
     xmlns="http://www.w3.org/2000/svg" version="1.1">
<rect x="0" y="0" width="100%" height="100%" fill="white" />
<defs>
<marker id="arrow" markerWidth="10" markerHeight="10" refX="10" refY="3" orient="auto">
<path d="M0,0 L0,6 L9,3 z"/>
</marker>
</defs>
<circle cx="516" cy="357" r="3" fill="blue" />
<circle cx="574" cy="267" r="3" fill="blue" />
<circle cx="117" cy="580" r="3" fill="blue" />
<circle cx="402" cy="596" r="3" fill="blue" />
<circle cx="227" cy="560" r="3" fill="blue" />
<circle cx="298" cy="281" r="3" fill="blue" />
<circle cx="221" cy="521" r="3" fill="blue" />
<circle cx="678" cy="550" r="3" fill="blue" />
<circle cx="690" cy="454" r="3" fill="blue" />
<circle cx="489" cy="509" r="3" fill="blue" />
<circle cx="246" cy="692" r="3" fill="blue" />
<circle cx="584" cy="419" r="3" fill="blue" />
<circle cx="283" cy="574" r="3" fill="blue" />
<circle cx="394" cy="536" r="3" fill="blue" />
<circle cx="189" cy="610" r="3" fill="blue" />
<circle cx="548" cy="606" r="3" fill="blue" />
<circle cx="268" cy="422" r="3" fill="blue" />
<circle cx="173" cy="285" r="3" fill="blue" />
<circle cx="302" cy="475" r="3" fill="blue" />
<circle cx="182" cy="429" r="3" fill="blue" />
<circle cx="336" cy="381" r="3" fill="blue" />
<circle cx="610" cy="458" r="3" fill="blue" />
<circle cx="202" cy="589" r="3" fill="blue" />
<circle cx="309" cy="193" r="3" fill="blue" />
<circle cx="343" cy="698" r="3" fill="blue" />
<circle cx="602" cy="490" r="3" fill="blue" />
<circle cx="690" cy="486" r="3" fill="blue" />
<circle cx="209" cy="274" r="3" fill="blue" />
<circle cx="360" cy="504" r="3" fill="blue" />
<circle cx="110" cy="450" r="3" fill="blue" />
<circle cx="414" cy="558" r="3" fill="blue" />
<circle cx="356" cy="583" r="3" fill="blue" />
<circle cx="280" cy="429" r="3" fill="blue" />
<circle cx="169" cy="482" r="3" fill="blue" />
<circle cx="205" cy="252" r="3" fill="blue" />
<circle cx="212" cy="442" r="3" fill="blue" />
<circle cx="534" cy="122" r="3" fill="blue" />
<circle cx="200" cy="637" r="3" fill="blue" />
<circle cx="611" cy="409" r="3" fill="blue" />
<circle cx="130" cy="255" r="3" fill="blue" />
<circle cx="407" cy="632" r="3" fill="blue" />
<circle cx="645" cy="398" r="3" fill="blue" />
<circle cx="419" cy="155" r="3" fill="blue" />
<circle cx="572" cy="680" r="3" fill="blue" />
<circle cx="560" cy="583" r="3" fill="blue" />
<circle cx="430" cy="275" r="3" fill="blue" />
<circle cx="442" cy="686" r="3" fill="blue" />
<circle cx="158" cy="622" r="3" fill="blue" />
<circle cx="415" cy="228" r="3" fill="blue" />
<circle cx="405" cy="521" r="3" fill="blue" />
<circle cx="516" cy="357" r="3" fill="blue" />
<circle cx="574" cy="267" r="3" fill="blue" />
<circle cx="117" cy="580" r="3" fill="blue" />
<line x1="117" y1="580" x2="189" y2="610"
      style="stroke: red;"   />
<line x1="117" y1="580" x2="202" y2="589"
      style="stroke: red;"   />
<line x1="117" y1="580" x2="158" y2="622"
      style="stroke: red;"   />
<circle cx="402" cy="596" r="3" fill="blue" />
<line x1="394" y1="536" x2="402" y2="596"
      style="stroke: red;"   />
<line x1="402" y1="596" x2="407" y2="632"
      style="stroke: red;"   />
<circle cx="227" cy="560" r="3" fill="blue" />
<line x1="221" y1="521" x2="227" y2="560"
      style="stroke: red;"   />
<line x1="227" y1="560" x2="283" y2="574"
      style="stroke: red;"   />
<line x1="227" y1="560" x2="189" y2="610"
      style="stroke: red;"   />
<circle cx="298" cy="281" r="3" fill="blue" />
<line x1="309" y1="193" x2="298" y2="281"
      style="stroke: red;"   />
<line x1="209" y1="274" x2="298" y2="281"
      style="stroke: red;"   />
<circle cx="221" cy="521" r="3" fill="blue" />
<line x1="169" y1="482" x2="221" y2="521"
      style="stroke: red;"   />
<line x1="212" y1="442" x2="221" y2="521"
      style="stroke: red;"   />
<circle cx="678" cy="550" r="3" fill="blue" />
<line x1="690" y1="486" x2="678" y2="550"
      style="stroke: red;"   />
<circle cx="690" cy="454" r="3" fill="blue" />
<line x1="690" y1="454" x2="690" y2="486"
      style="stroke: red;"   />
<line x1="645" y1="398" x2="690" y2="454"
      style="stroke: red;"   />
<circle cx="489" cy="509" r="3" fill="blue" />
<line x1="489" y1="509" x2="414" y2="558"
      style="stroke: red;"   />
<circle cx="246" cy="692" r="3" fill="blue" />
<line x1="200" y1="637" x2="246" y2="692"
      style="stroke: red;"   />
<circle cx="584" cy="419" r="3" fill="blue" />
<line x1="645" y1="398" x2="584" y2="419"
      style="stroke: red;"   />
<circle cx="283" cy="574" r="3" fill="blue" />
<circle cx="394" cy="536" r="3" fill="blue" />
<line x1="360" y1="504" x2="394" y2="536"
      style="stroke: red;"   />
<circle cx="189" cy="610" r="3" fill="blue" />
<line x1="189" y1="610" x2="200" y2="637"
      style="stroke: red;"   />
<circle cx="548" cy="606" r="3" fill="blue" />
<line x1="548" y1="606" x2="572" y2="680"
      style="stroke: red;"   />
<line x1="560" y1="583" x2="548" y2="606"
      style="stroke: red;"   />
<circle cx="268" cy="422" r="3" fill="blue" />
<line x1="268" y1="422" x2="302" y2="475"
      style="stroke: red;"   />
<line x1="268" y1="422" x2="182" y2="429"
      style="stroke: red;"   />
<line x1="336" y1="381" x2="268" y2="422"
      style="stroke: red;"   />
<line x1="268" y1="422" x2="280" y2="429"
      style="stroke: red;"   />
<circle cx="173" cy="285" r="3" fill="blue" />
<line x1="209" y1="274" x2="173" y2="285"
      style="stroke: red;"   />
<circle cx="302" cy="475" r="3" fill="blue" />
<line x1="302" y1="475" x2="360" y2="504"
      style="stroke: red;"   />
<circle cx="182" cy="429" r="3" fill="blue" />
<line x1="182" y1="429" x2="169" y2="482"
      style="stroke: red;"   />
<circle cx="336" cy="381" r="3" fill="blue" />
<circle cx="610" cy="458" r="3" fill="blue" />
<line x1="610" y1="458" x2="690" y2="486"
      style="stroke: red;"   />
<circle cx="202" cy="589" r="3" fill="blue" />
<circle cx="309" cy="193" r="3" fill="blue" />
<circle cx="343" cy="698" r="3" fill="blue" />
<circle cx="602" cy="490" r="3" fill="blue" />
<line x1="690" y1="486" x2="602" y2="490"
      style="stroke: red;"   />
<circle cx="690" cy="486" r="3" fill="blue" />
<circle cx="209" cy="274" r="3" fill="blue" />
<line x1="205" y1="252" x2="209" y2="274"
      style="stroke: red;"   />
<line x1="130" y1="255" x2="209" y2="274"
      style="stroke: red;"   />
<circle cx="360" cy="504" r="3" fill="blue" />
<line x1="360" y1="504" x2="414" y2="558"
      style="stroke: red;"   />
<line x1="360" y1="504" x2="356" y2="583"
      style="stroke: red;"   />
<line x1="360" y1="504" x2="405" y2="521"
      style="stroke: red;"   />
<circle cx="110" cy="450" r="3" fill="blue" />
<line x1="110" y1="450" x2="169" y2="482"
      style="stroke: red;"   />
<circle cx="414" cy="558" r="3" fill="blue" />
<circle cx="356" cy="583" r="3" fill="blue" />
<circle cx="280" cy="429" r="3" fill="blue" />
<circle cx="169" cy="482" r="3" fill="blue" />
<circle cx="205" cy="252" r="3" fill="blue" />
<circle cx="212" cy="442" r="3" fill="blue" />
<circle cx="534" cy="122" r="3" fill="blue" />
<circle cx="200" cy="637" r="3" fill="blue" />
<circle cx="611" cy="409" r="3" fill="blue" />
<line x1="645" y1="398" x2="611" y2="409"
      style="stroke: red;"   />
<circle cx="130" cy="255" r="3" fill="blue" />
<circle cx="407" cy="632" r="3" fill="blue" />
<line x1="407" y1="632" x2="442" y2="686"
      style="stroke: red;"   />
<circle cx="645" cy="398" r="3" fill="blue" />
<circle cx="419" cy="155" r="3" fill="blue" />
<line x1="419" y1="155" x2="415" y2="228"
      style="stroke: red;"   />
<circle cx="572" cy="680" r="3" fill="blue" />
<circle cx="560" cy="583" r="3" fill="blue" />
<circle cx="430" cy="275" r="3" fill="blue" />
<line x1="415" y1="228" x2="430" y2="275"
      style="stroke: red;"   />
<circle cx="442" cy="686" r="3" fill="blue" />
<circle cx="158" cy="622" r="3" fill="blue" />
<circle cx="415" cy="228" r="3" fill="blue" />
<circle cx="405" cy="521" r="3" fill="blue" />
</svg>
