<?xml version="1.0" standalone="no"?>
<!DOCTYPE svg PUBLIC "-//W3C//DTD SVG 1.1//EN"
  "http://www.w3.org/Graphics/SVG/1.1/DTD/svg11.dtd">
<svg width="800" height="800"
     xmlns="http://www.w3.org/2000/svg" version="1.1">
<rect x="0" y="0" width="100%" height="100%" fill="white" />
<defs>
<marker id="arrow" markerWidth="10" markerHeight="10" refX="10" refY="3" orient="auto">
<path d="M0,0 L0,6 L9,3 z"/>
</marker>
</defs>
<circle cx="552" cy="598" r="3" fill="blue" />
<circle cx="120" cy="430" r="3" fill="blue" />
<circle cx="337" cy="132" r="3" fill="blue" />
<circle cx="317" cy="445" r="3" fill="blue" />
<circle cx="188" cy="534" r="3" fill="blue" />
<circle cx="471" cy="601" r="3" fill="blue" />
<circle cx="249" cy="477" r="3" fill="blue" />
<circle cx="658" cy="395" r="3" fill="blue" />
<circle cx="368" cy="485" r="3" fill="blue" />
<circle cx="478" cy="317" r="3" fill="blue" />
<circle cx="208" cy="407" r="3" fill="blue" />
<circle cx="438" cy="263" r="3" fill="blue" />
<circle cx="484" cy="608" r="3" fill="blue" />
<circle cx="364" cy="608" r="3" fill="blue" />
<circle cx="555" cy="263" r="3" fill="blue" />
<circle cx="446" cy="408" r="3" fill="blue" />
<circle cx="162" cy="467" r="3" fill="blue" />
<circle cx="138" cy="399" r="3" fill="blue" />
<circle cx="500" cy="356" r="3" fill="blue" />
<circle cx="145" cy="588" r="3" fill="blue" />
<circle cx="190" cy="516" r="3" fill="blue" />
<circle cx="489" cy="340" r="3" fill="blue" />
<circle cx="293" cy="448" r="3" fill="blue" />
<circle cx="635" cy="562" r="3" fill="blue" />
<circle cx="233" cy="414" r="3" fill="blue" />
<circle cx="179" cy="341" r="3" fill="blue" />
<circle cx="121" cy="518" r="3" fill="blue" />
<circle cx="504" cy="506" r="3" fill="blue" />
<circle cx="426" cy="169" r="3" fill="blue" />
<circle cx="414" cy="282" r="3" fill="blue" />
<circle cx="332" cy="161" r="3" fill="blue" />
<circle cx="591" cy="394" r="3" fill="blue" />
<circle cx="529" cy="630" r="3" fill="blue" />
<circle cx="694" cy="329" r="3" fill="blue" />
<circle cx="286" cy="139" r="3" fill="blue" />
<circle cx="217" cy="376" r="3" fill="blue" />
<circle cx="556" cy="606" r="3" fill="blue" />
<circle cx="616" cy="149" r="3" fill="blue" />
<circle cx="355" cy="552" r="3" fill="blue" />
<circle cx="612" cy="488" r="3" fill="blue" />
<circle cx="266" cy="691" r="3" fill="blue" />
<circle cx="130" cy="288" r="3" fill="blue" />
<circle cx="510" cy="534" r="3" fill="blue" />
<circle cx="694" cy="237" r="3" fill="blue" />
<circle cx="604" cy="409" r="3" fill="blue" />
<circle cx="419" cy="237" r="3" fill="blue" />
<circle cx="471" cy="311" r="3" fill="blue" />
<circle cx="531" cy="300" r="3" fill="blue" />
<circle cx="241" cy="526" r="3" fill="blue" />
<circle cx="529" cy="428" r="3" fill="blue" />
<circle cx="552" cy="598" r="3" fill="blue" />
<line x1="552" y1="598" x2="471" y2="601"
      style="stroke: red;"   />
<line x1="552" y1="598" x2="484" y2="608"
      style="stroke: red;"   />
<line x1="552" y1="598" x2="529" y2="630"
      style="stroke: red;"   />
<line x1="552" y1="598" x2="556" y2="606"
      style="stroke: red;"   />
<line x1="510" y1="534" x2="552" y2="598"
      style="stroke: red;"   />
<circle cx="120" cy="430" r="3" fill="blue" />
<line x1="208" y1="407" x2="120" y2="430"
      style="stroke: red;"   />
<line x1="120" y1="430" x2="162" y2="467"
      style="stroke: red;"   />
<line x1="138" y1="399" x2="120" y2="430"
      style="stroke: red;"   />
<line x1="120" y1="430" x2="121" y2="518"
      style="stroke: red;"   />
<circle cx="337" cy="132" r="3" fill="blue" />
<line x1="337" y1="132" x2="332" y2="161"
      style="stroke: red;"   />
<line x1="337" y1="132" x2="286" y2="139"
      style="stroke: red;"   />
<circle cx="317" cy="445" r="3" fill="blue" />
<line x1="317" y1="445" x2="249" y2="477"
      style="stroke: red;"   />
<line x1="317" y1="445" x2="368" y2="485"
      style="stroke: darkgray;"   />
<line x1="317" y1="445" x2="293" y2="448"
      style="stroke: darkgray;"   />
<line x1="233" y1="414" x2="317" y2="445"
      style="stroke: darkgray;"   />
<circle cx="188" cy="534" r="3" fill="blue" />
<line x1="249" y1="477" x2="188" y2="534"
      style="stroke: darkgray;"   />
<line x1="162" y1="467" x2="188" y2="534"
      style="stroke: darkgray;"   />
<line x1="188" y1="534" x2="145" y2="588"
      style="stroke: darkgray;"   />
<line x1="190" y1="516" x2="188" y2="534"
      style="stroke: darkgray;"   />
<line x1="121" y1="518" x2="188" y2="534"
      style="stroke: red;"   />
<line x1="241" y1="526" x2="188" y2="534"
      style="stroke: darkgray;"   />
<circle cx="471" cy="601" r="3" fill="blue" />
<line x1="471" y1="601" x2="484" y2="608"
      style="stroke: darkgray;"   />
<line x1="471" y1="601" x2="529" y2="630"
      style="stroke: darkgray;"   />
<line x1="471" y1="601" x2="556" y2="606"
      style="stroke: darkgray;"   />
<line x1="510" y1="534" x2="471" y2="601"
      style="stroke: darkgray;"   />
<circle cx="249" cy="477" r="3" fill="blue" />
<line x1="208" y1="407" x2="249" y2="477"
      style="stroke: darkgray;"   />
<line x1="162" y1="467" x2="249" y2="477"
      style="stroke: darkgray;"   />
<line x1="249" y1="477" x2="190" y2="516"
      style="stroke: red;"   />
<line x1="293" y1="448" x2="249" y2="477"
      style="stroke: red;"   />
<line x1="233" y1="414" x2="249" y2="477"
      style="stroke: red;"   />
<line x1="249" y1="477" x2="241" y2="526"
      style="stroke: darkgray;"   />
<circle cx="658" cy="395" r="3" fill="blue" />
<line x1="591" y1="394" x2="658" y2="395"
      style="stroke: darkgray;"   />
<line x1="694" y1="329" x2="658" y2="395"
      style="stroke: red;"   />
<line x1="658" y1="395" x2="604" y2="409"
      style="stroke: red;"   />
<circle cx="368" cy="485" r="3" fill="blue" />
<line x1="293" y1="448" x2="368" y2="485"
      style="stroke: red;"   />
<line x1="368" y1="485" x2="355" y2="552"
      style="stroke: red;"   />
<circle cx="478" cy="317" r="3" fill="blue" />
<line x1="438" y1="263" x2="478" y2="317"
      style="stroke: darkgray;"   />
<line x1="478" y1="317" x2="500" y2="356"
      style="stroke: red;"   />
<line x1="478" y1="317" x2="489" y2="340"
      style="stroke: darkgray;"   />
<line x1="414" y1="282" x2="478" y2="317"
      style="stroke: darkgray;"   />
<line x1="471" y1="311" x2="478" y2="317"
      style="stroke: darkgray;"   />
<line x1="531" y1="300" x2="478" y2="317"
      style="stroke: darkgray;"   />
<circle cx="208" cy="407" r="3" fill="blue" />
<line x1="208" y1="407" x2="162" y2="467"
      style="stroke: darkgray;"   />
<line x1="138" y1="399" x2="208" y2="407"
      style="stroke: darkgray;"   />
<line x1="208" y1="407" x2="233" y2="414"
      style="stroke: darkgray;"   />
<line x1="179" y1="341" x2="208" y2="407"
      style="stroke: darkgray;"   />
<line x1="217" y1="376" x2="208" y2="407"
      style="stroke: darkgray;"   />
<circle cx="438" cy="263" r="3" fill="blue" />
<line x1="438" y1="263" x2="414" y2="282"
      style="stroke: darkgray;"   />
<line x1="419" y1="237" x2="438" y2="263"
      style="stroke: darkgray;"   />
<line x1="438" y1="263" x2="471" y2="311"
      style="stroke: red;"   />
<circle cx="484" cy="608" r="3" fill="blue" />
<line x1="484" y1="608" x2="529" y2="630"
      style="stroke: darkgray;"   />
<line x1="556" y1="606" x2="484" y2="608"
      style="stroke: darkgray;"   />
<line x1="510" y1="534" x2="484" y2="608"
      style="stroke: darkgray;"   />
<circle cx="364" cy="608" r="3" fill="blue" />
<line x1="355" y1="552" x2="364" y2="608"
      style="stroke: red;"   />
<circle cx="555" cy="263" r="3" fill="blue" />
<line x1="555" y1="263" x2="531" y2="300"
      style="stroke: red;"   />
<circle cx="446" cy="408" r="3" fill="blue" />
<line x1="500" y1="356" x2="446" y2="408"
      style="stroke: darkgray;"   />
<line x1="489" y1="340" x2="446" y2="408"
      style="stroke: darkgray;"   />
<line x1="446" y1="408" x2="529" y2="428"
      style="stroke: red;"   />
<circle cx="162" cy="467" r="3" fill="blue" />
<line x1="138" y1="399" x2="162" y2="467"
      style="stroke: darkgray;"   />
<line x1="162" y1="467" x2="190" y2="516"
      style="stroke: darkgray;"   />
<line x1="233" y1="414" x2="162" y2="467"
      style="stroke: darkgray;"   />
<line x1="162" y1="467" x2="121" y2="518"
      style="stroke: darkgray;"   />
<circle cx="138" cy="399" r="3" fill="blue" />
<line x1="179" y1="341" x2="138" y2="399"
      style="stroke: darkgray;"   />
<line x1="217" y1="376" x2="138" y2="399"
      style="stroke: darkgray;"   />
<circle cx="500" cy="356" r="3" fill="blue" />
<line x1="489" y1="340" x2="500" y2="356"
      style="stroke: red;"   />
<line x1="471" y1="311" x2="500" y2="356"
      style="stroke: red;"   />
<line x1="531" y1="300" x2="500" y2="356"
      style="stroke: red;"   />
<line x1="500" y1="356" x2="529" y2="428"
      style="stroke: red;"   />
<circle cx="145" cy="588" r="3" fill="blue" />
<line x1="190" y1="516" x2="145" y2="588"
      style="stroke: darkgray;"   />
<line x1="121" y1="518" x2="145" y2="588"
      style="stroke: red;"   />
<circle cx="190" cy="516" r="3" fill="blue" />
<line x1="190" y1="516" x2="121" y2="518"
      style="stroke: red;"   />
<line x1="190" y1="516" x2="241" y2="526"
      style="stroke: red;"   />
<circle cx="489" cy="340" r="3" fill="blue" />
<line x1="471" y1="311" x2="489" y2="340"
      style="stroke: darkgray;"   />
<line x1="531" y1="300" x2="489" y2="340"
      style="stroke: darkgray;"   />
<circle cx="293" cy="448" r="3" fill="blue" />
<line x1="233" y1="414" x2="293" y2="448"
      style="stroke: darkgray;"   />
<circle cx="635" cy="562" r="3" fill="blue" />
<line x1="612" y1="488" x2="635" y2="562"
      style="stroke: red;"   />
<circle cx="233" cy="414" r="3" fill="blue" />
<line x1="217" y1="376" x2="233" y2="414"
      style="stroke: red;"   />
<circle cx="179" cy="341" r="3" fill="blue" />
<line x1="179" y1="341" x2="217" y2="376"
      style="stroke: red;"   />
<line x1="130" y1="288" x2="179" y2="341"
      style="stroke: red;"   />
<circle cx="121" cy="518" r="3" fill="blue" />
<circle cx="504" cy="506" r="3" fill="blue" />
<line x1="504" y1="506" x2="510" y2="534"
      style="stroke: red;"   />
<line x1="529" y1="428" x2="504" y2="506"
      style="stroke: red;"   />
<circle cx="426" cy="169" r="3" fill="blue" />
<line x1="426" y1="169" x2="419" y2="237"
      style="stroke: red;"   />
<circle cx="414" cy="282" r="3" fill="blue" />
<line x1="419" y1="237" x2="414" y2="282"
      style="stroke: red;"   />
<line x1="414" y1="282" x2="471" y2="311"
      style="stroke: red;"   />
<circle cx="332" cy="161" r="3" fill="blue" />
<line x1="286" y1="139" x2="332" y2="161"
      style="stroke: darkgray;"   />
<circle cx="591" cy="394" r="3" fill="blue" />
<line x1="591" y1="394" x2="604" y2="409"
      style="stroke: darkgray;"   />
<line x1="591" y1="394" x2="529" y2="428"
      style="stroke: red;"   />
<circle cx="529" cy="630" r="3" fill="blue" />
<line x1="556" y1="606" x2="529" y2="630"
      style="stroke: darkgray;"   />
<circle cx="694" cy="329" r="3" fill="blue" />
<circle cx="286" cy="139" r="3" fill="blue" />
<circle cx="217" cy="376" r="3" fill="blue" />
<circle cx="556" cy="606" r="3" fill="blue" />
<line x1="510" y1="534" x2="556" y2="606"
      style="stroke: darkgray;"   />
<circle cx="616" cy="149" r="3" fill="blue" />
<circle cx="355" cy="552" r="3" fill="blue" />
<circle cx="612" cy="488" r="3" fill="blue" />
<line x1="604" y1="409" x2="612" y2="488"
      style="stroke: red;"   />
<circle cx="266" cy="691" r="3" fill="blue" />
<circle cx="130" cy="288" r="3" fill="blue" />
<circle cx="510" cy="534" r="3" fill="blue" />
<circle cx="694" cy="237" r="3" fill="blue" />
<circle cx="604" cy="409" r="3" fill="blue" />
<line x1="604" y1="409" x2="529" y2="428"
      style="stroke: red;"   />
<circle cx="419" cy="237" r="3" fill="blue" />
<circle cx="471" cy="311" r="3" fill="blue" />
<line x1="531" y1="300" x2="471" y2="311"
      style="stroke: darkgray;"   />
<circle cx="531" cy="300" r="3" fill="blue" />
<circle cx="241" cy="526" r="3" fill="blue" />
<circle cx="529" cy="428" r="3" fill="blue" />
</svg>
