<?xml version="1.0" standalone="no"?>
<!DOCTYPE svg PUBLIC "-//W3C//DTD SVG 1.1//EN"
  "http://www.w3.org/Graphics/SVG/1.1/DTD/svg11.dtd">
<svg width="800" height="800"
     xmlns="http://www.w3.org/2000/svg" version="1.1">
<rect x="0" y="0" width="100%" height="100%" fill="white" />
<defs>
<marker id="arrow" markerWidth="10" markerHeight="10" refX="10" refY="3" orient="auto">
<path d="M0,0 L0,6 L9,3 z"/>
</marker>
</defs>
<circle cx="184" cy="683" r="3" fill="blue" />
<circle cx="246" cy="593" r="3" fill="blue" />
<circle cx="689" cy="697" r="3" fill="blue" />
<circle cx="530" cy="556" r="3" fill="blue" />
<circle cx="594" cy="499" r="3" fill="blue" />
<circle cx="641" cy="164" r="3" fill="blue" />
<circle cx="335" cy="514" r="3" fill="blue" />
<circle cx="127" cy="559" r="3" fill="blue" />
<circle cx="610" cy="671" r="3" fill="blue" />
<circle cx="171" cy="627" r="3" fill="blue" />
<circle cx="277" cy="337" r="3" fill="blue" />
<circle cx="387" cy="663" r="3" fill="blue" />
<circle cx="255" cy="482" r="3" fill="blue" />
<circle cx="541" cy="617" r="3" fill="blue" />
<circle cx="110" cy="119" r="3" fill="blue" />
<circle cx="309" cy="195" r="3" fill="blue" />
<circle cx="103" cy="456" r="3" fill="blue" />
<circle cx="689" cy="692" r="3" fill="blue" />
<circle cx="453" cy="519" r="3" fill="blue" />
<circle cx="549" cy="348" r="3" fill="blue" />
<circle cx="319" cy="490" r="3" fill="blue" />
<circle cx="413" cy="554" r="3" fill="blue" />
<circle cx="305" cy="440" r="3" fill="blue" />
<circle cx="414" cy="215" r="3" fill="blue" />
<circle cx="412" cy="485" r="3" fill="blue" />
<circle cx="143" cy="589" r="3" fill="blue" />
<circle cx="122" cy="431" r="3" fill="blue" />
<circle cx="553" cy="277" r="3" fill="blue" />
<circle cx="213" cy="394" r="3" fill="blue" />
<circle cx="195" cy="224" r="3" fill="blue" />
<circle cx="414" cy="405" r="3" fill="blue" />
<circle cx="319" cy="417" r="3" fill="blue" />
<circle cx="161" cy="308" r="3" fill="blue" />
<circle cx="410" cy="515" r="3" fill="blue" />
<circle cx="128" cy="259" r="3" fill="blue" />
<circle cx="164" cy="347" r="3" fill="blue" />
<circle cx="650" cy="477" r="3" fill="blue" />
<circle cx="202" cy="255" r="3" fill="blue" />
<circle cx="218" cy="516" r="3" fill="blue" />
<circle cx="370" cy="530" r="3" fill="blue" />
<circle cx="301" cy="414" r="3" fill="blue" />
<circle cx="419" cy="324" r="3" fill="blue" />
<circle cx="145" cy="273" r="3" fill="blue" />
<circle cx="502" cy="258" r="3" fill="blue" />
<circle cx="568" cy="597" r="3" fill="blue" />
<circle cx="382" cy="282" r="3" fill="blue" />
<circle cx="303" cy="602" r="3" fill="blue" />
<circle cx="600" cy="364" r="3" fill="blue" />
<circle cx="210" cy="310" r="3" fill="blue" />
<circle cx="179" cy="238" r="3" fill="blue" />
<circle cx="184" cy="683" r="3" fill="blue" />
<line x1="171" y1="627" x2="184" y2="683"
      style="stroke: darkgray;"   />
<circle cx="246" cy="593" r="3" fill="blue" />
<line x1="246" y1="593" x2="171" y2="627"
      style="stroke: darkgray;"   />
<line x1="218" y1="516" x2="246" y2="593"
      style="stroke: darkgray;"   />
<line x1="246" y1="593" x2="303" y2="602"
      style="stroke: darkgray;"   />
<circle cx="689" cy="697" r="3" fill="blue" />
<line x1="610" y1="671" x2="689" y2="697"
      style="stroke: darkgray;"   />
<line x1="689" y1="692" x2="689" y2="697"
      style="stroke: darkgray;"   />
<circle cx="530" cy="556" r="3" fill="blue" />
<line x1="594" y1="499" x2="530" y2="556"
      style="stroke: darkgray;"   />
<line x1="530" y1="556" x2="541" y2="617"
      style="stroke: darkgray;"   />
<line x1="453" y1="519" x2="530" y2="556"
      style="stroke: darkgray;"   />
<line x1="530" y1="556" x2="568" y2="597"
      style="stroke: darkgray;"   />
<circle cx="594" cy="499" r="3" fill="blue" />
<line x1="650" y1="477" x2="594" y2="499"
      style="stroke: darkgray;"   />
<circle cx="641" cy="164" r="3" fill="blue" />
<circle cx="335" cy="514" r="3" fill="blue" />
<line x1="255" y1="482" x2="335" y2="514"
      style="stroke: darkgray;"   />
<line x1="319" y1="490" x2="335" y2="514"
      style="stroke: darkgray;"   />
<line x1="335" y1="514" x2="413" y2="554"
      style="stroke: darkgray;"   />
<line x1="305" y1="440" x2="335" y2="514"
      style="stroke: darkgray;"   />
<line x1="412" y1="485" x2="335" y2="514"
      style="stroke: darkgray;"   />
<line x1="335" y1="514" x2="410" y2="515"
      style="stroke: darkgray;"   />
<line x1="335" y1="514" x2="370" y2="530"
      style="stroke: darkgray;"   />
<circle cx="127" cy="559" r="3" fill="blue" />
<line x1="127" y1="559" x2="171" y2="627"
      style="stroke: darkgray;"   />
<line x1="127" y1="559" x2="143" y2="589"
      style="stroke: darkgray;"   />
<circle cx="610" cy="671" r="3" fill="blue" />
<line x1="541" y1="617" x2="610" y2="671"
      style="stroke: darkgray;"   />
<line x1="610" y1="671" x2="689" y2="692"
      style="stroke: darkgray;"   />
<line x1="568" y1="597" x2="610" y2="671"
      style="stroke: darkgray;"   />
<circle cx="171" cy="627" r="3" fill="blue" />
<line x1="143" y1="589" x2="171" y2="627"
      style="stroke: darkgray;"   />
<circle cx="277" cy="337" r="3" fill="blue" />
<line x1="277" y1="337" x2="213" y2="394"
      style="stroke: darkgray;"   />
<line x1="277" y1="337" x2="301" y2="414"
      style="stroke: darkgray;"   />
<line x1="210" y1="310" x2="277" y2="337"
      style="stroke: darkgray;"   />
<circle cx="387" cy="663" r="3" fill="blue" />
<circle cx="255" cy="482" r="3" fill="blue" />
<line x1="255" y1="482" x2="319" y2="490"
      style="stroke: darkgray;"   />
<line x1="305" y1="440" x2="255" y2="482"
      style="stroke: darkgray;"   />
<line x1="255" y1="482" x2="218" y2="516"
      style="stroke: darkgray;"   />
<line x1="301" y1="414" x2="255" y2="482"
      style="stroke: darkgray;"   />
<circle cx="541" cy="617" r="3" fill="blue" />
<line x1="568" y1="597" x2="541" y2="617"
      style="stroke: darkgray;"   />
<circle cx="110" cy="119" r="3" fill="blue" />
<circle cx="309" cy="195" r="3" fill="blue" />
<circle cx="103" cy="456" r="3" fill="blue" />
<line x1="122" y1="431" x2="103" y2="456"
      style="stroke: darkgray;"   />
<circle cx="689" cy="692" r="3" fill="blue" />
<circle cx="453" cy="519" r="3" fill="blue" />
<line x1="453" y1="519" x2="413" y2="554"
      style="stroke: darkgray;"   />
<line x1="412" y1="485" x2="453" y2="519"
      style="stroke: darkgray;"   />
<line x1="410" y1="515" x2="453" y2="519"
      style="stroke: darkgray;"   />
<line x1="453" y1="519" x2="370" y2="530"
      style="stroke: darkgray;"   />
<circle cx="549" cy="348" r="3" fill="blue" />
<line x1="553" y1="277" x2="549" y2="348"
      style="stroke: darkgray;"   />
<line x1="549" y1="348" x2="600" y2="364"
      style="stroke: darkgray;"   />
<circle cx="319" cy="490" r="3" fill="blue" />
<line x1="305" y1="440" x2="319" y2="490"
      style="stroke: darkgray;"   />
<line x1="319" y1="417" x2="319" y2="490"
      style="stroke: darkgray;"   />
<line x1="319" y1="490" x2="370" y2="530"
      style="stroke: darkgray;"   />
<line x1="301" y1="414" x2="319" y2="490"
      style="stroke: darkgray;"   />
<circle cx="413" cy="554" r="3" fill="blue" />
<line x1="412" y1="485" x2="413" y2="554"
      style="stroke: darkgray;"   />
<line x1="410" y1="515" x2="413" y2="554"
      style="stroke: darkgray;"   />
<line x1="370" y1="530" x2="413" y2="554"
      style="stroke: darkgray;"   />
<circle cx="305" cy="440" r="3" fill="blue" />
<line x1="319" y1="417" x2="305" y2="440"
      style="stroke: darkgray;"   />
<line x1="301" y1="414" x2="305" y2="440"
      style="stroke: darkgray;"   />
<circle cx="414" cy="215" r="3" fill="blue" />
<line x1="414" y1="215" x2="382" y2="282"
      style="stroke: darkgray;"   />
<circle cx="412" cy="485" r="3" fill="blue" />
<line x1="414" y1="405" x2="412" y2="485"
      style="stroke: darkgray;"   />
<line x1="412" y1="485" x2="410" y2="515"
      style="stroke: darkgray;"   />
<line x1="412" y1="485" x2="370" y2="530"
      style="stroke: darkgray;"   />
<circle cx="143" cy="589" r="3" fill="blue" />
<circle cx="122" cy="431" r="3" fill="blue" />
<circle cx="553" cy="277" r="3" fill="blue" />
<line x1="502" y1="258" x2="553" y2="277"
      style="stroke: darkgray;"   />
<circle cx="213" cy="394" r="3" fill="blue" />
<line x1="164" y1="347" x2="213" y2="394"
      style="stroke: darkgray;"   />
<line x1="210" y1="310" x2="213" y2="394"
      style="stroke: darkgray;"   />
<circle cx="195" cy="224" r="3" fill="blue" />
<line x1="195" y1="224" x2="128" y2="259"
      style="stroke: darkgray;"   />
<line x1="195" y1="224" x2="202" y2="255"
      style="stroke: darkgray;"   />
<line x1="195" y1="224" x2="145" y2="273"
      style="stroke: darkgray;"   />
<line x1="195" y1="224" x2="210" y2="310"
      style="stroke: darkgray;"   />
<line x1="195" y1="224" x2="179" y2="238"
      style="stroke: darkgray;"   />
<circle cx="414" cy="405" r="3" fill="blue" />
<line x1="419" y1="324" x2="414" y2="405"
      style="stroke: darkgray;"   />
<circle cx="319" cy="417" r="3" fill="blue" />
<line x1="301" y1="414" x2="319" y2="417"
      style="stroke: darkgray;"   />
<circle cx="161" cy="308" r="3" fill="blue" />
<line x1="128" y1="259" x2="161" y2="308"
      style="stroke: darkgray;"   />
<line x1="161" y1="308" x2="164" y2="347"
      style="stroke: darkgray;"   />
<line x1="202" y1="255" x2="161" y2="308"
      style="stroke: darkgray;"   />
<line x1="145" y1="273" x2="161" y2="308"
      style="stroke: darkgray;"   />
<line x1="161" y1="308" x2="210" y2="310"
      style="stroke: darkgray;"   />
<line x1="179" y1="238" x2="161" y2="308"
      style="stroke: darkgray;"   />
<circle cx="410" cy="515" r="3" fill="blue" />
<line x1="410" y1="515" x2="370" y2="530"
      style="stroke: darkgray;"   />
<circle cx="128" cy="259" r="3" fill="blue" />
<line x1="202" y1="255" x2="128" y2="259"
      style="stroke: darkgray;"   />
<line x1="128" y1="259" x2="145" y2="273"
      style="stroke: darkgray;"   />
<line x1="179" y1="238" x2="128" y2="259"
      style="stroke: darkgray;"   />
<circle cx="164" cy="347" r="3" fill="blue" />
<line x1="145" y1="273" x2="164" y2="347"
      style="stroke: darkgray;"   />
<line x1="210" y1="310" x2="164" y2="347"
      style="stroke: darkgray;"   />
<circle cx="650" cy="477" r="3" fill="blue" />
<circle cx="202" cy="255" r="3" fill="blue" />
<line x1="202" y1="255" x2="145" y2="273"
      style="stroke: darkgray;"   />
<line x1="202" y1="255" x2="210" y2="310"
      style="stroke: darkgray;"   />
<line x1="179" y1="238" x2="202" y2="255"
      style="stroke: darkgray;"   />
<circle cx="218" cy="516" r="3" fill="blue" />
<circle cx="370" cy="530" r="3" fill="blue" />
<circle cx="301" cy="414" r="3" fill="blue" />
<circle cx="419" cy="324" r="3" fill="blue" />
<line x1="382" y1="282" x2="419" y2="324"
      style="stroke: darkgray;"   />
<circle cx="145" cy="273" r="3" fill="blue" />
<line x1="145" y1="273" x2="210" y2="310"
      style="stroke: darkgray;"   />
<line x1="179" y1="238" x2="145" y2="273"
      style="stroke: darkgray;"   />
<circle cx="502" cy="258" r="3" fill="blue" />
<circle cx="568" cy="597" r="3" fill="blue" />
<circle cx="382" cy="282" r="3" fill="blue" />
<circle cx="303" cy="602" r="3" fill="blue" />
<circle cx="600" cy="364" r="3" fill="blue" />
<circle cx="210" cy="310" r="3" fill="blue" />
<line x1="179" y1="238" x2="210" y2="310"
      style="stroke: darkgray;"   />
<circle cx="179" cy="238" r="3" fill="blue" />
</svg>
