<?xml version="1.0" standalone="no"?>
<!DOCTYPE svg PUBLIC "-//W3C//DTD SVG 1.1//EN"
  "http://www.w3.org/Graphics/SVG/1.1/DTD/svg11.dtd">
<svg width="800" height="800"
     xmlns="http://www.w3.org/2000/svg" version="1.1">
<rect x="0" y="0" width="100%" height="100%" fill="white" />
<defs>
<marker id="arrow" markerWidth="10" markerHeight="10" refX="10" refY="3" orient="auto">
<path d="M0,0 L0,6 L9,3 z"/>
</marker>
</defs>
<circle cx="173" cy="613" r="3" fill="blue" />
<circle cx="120" cy="283" r="3" fill="blue" />
<circle cx="690" cy="147" r="3" fill="blue" />
<circle cx="485" cy="648" r="3" fill="blue" />
<circle cx="482" cy="488" r="3" fill="blue" />
<circle cx="487" cy="125" r="3" fill="blue" />
<circle cx="509" cy="101" r="3" fill="blue" />
<circle cx="343" cy="282" r="3" fill="blue" />
<circle cx="389" cy="535" r="3" fill="blue" />
<circle cx="534" cy="185" r="3" fill="blue" />
<circle cx="603" cy="236" r="3" fill="blue" />
<circle cx="152" cy="476" r="3" fill="blue" />
<circle cx="506" cy="692" r="3" fill="blue" />
<circle cx="532" cy="235" r="3" fill="blue" />
<circle cx="527" cy="316" r="3" fill="blue" />
<circle cx="635" cy="600" r="3" fill="blue" />
<circle cx="229" cy="655" r="3" fill="blue" />
<circle cx="184" cy="220" r="3" fill="blue" />
<circle cx="102" cy="569" r="3" fill="blue" />
<circle cx="168" cy="485" r="3" fill="blue" />
<circle cx="357" cy="556" r="3" fill="blue" />
<circle cx="511" cy="167" r="3" fill="blue" />
<circle cx="557" cy="154" r="3" fill="blue" />
<circle cx="350" cy="247" r="3" fill="blue" />
<circle cx="589" cy="184" r="3" fill="blue" />
<circle cx="333" cy="493" r="3" fill="blue" />
<circle cx="320" cy="385" r="3" fill="blue" />
<circle cx="269" cy="126" r="3" fill="blue" />
<circle cx="377" cy="102" r="3" fill="blue" />
<circle cx="262" cy="204" r="3" fill="blue" />
<circle cx="318" cy="198" r="3" fill="blue" />
<circle cx="105" cy="447" r="3" fill="blue" />
<circle cx="154" cy="189" r="3" fill="blue" />
<circle cx="567" cy="156" r="3" fill="blue" />
<circle cx="658" cy="636" r="3" fill="blue" />
<circle cx="542" cy="316" r="3" fill="blue" />
<circle cx="492" cy="353" r="3" fill="blue" />
<circle cx="384" cy="349" r="3" fill="blue" />
<circle cx="408" cy="634" r="3" fill="blue" />
<circle cx="497" cy="298" r="3" fill="blue" />
<circle cx="118" cy="130" r="3" fill="blue" />
<circle cx="691" cy="339" r="3" fill="blue" />
<circle cx="415" cy="261" r="3" fill="blue" />
<circle cx="366" cy="693" r="3" fill="blue" />
<circle cx="263" cy="529" r="3" fill="blue" />
<circle cx="198" cy="481" r="3" fill="blue" />
<circle cx="627" cy="203" r="3" fill="blue" />
<circle cx="229" cy="681" r="3" fill="blue" />
<circle cx="292" cy="696" r="3" fill="blue" />
<circle cx="138" cy="251" r="3" fill="blue" />
<circle cx="173" cy="613" r="3" fill="blue" />
<line x1="173" y1="613" x2="229" y2="655"
      style="stroke: darkgray;"   />
<line x1="102" y1="569" x2="173" y2="613"
      style="stroke: darkgray;"   />
<line x1="173" y1="613" x2="229" y2="681"
      style="stroke: darkgray;"   />
<circle cx="120" cy="283" r="3" fill="blue" />
<line x1="138" y1="251" x2="120" y2="283"
      style="stroke: darkgray;"   />
<circle cx="690" cy="147" r="3" fill="blue" />
<line x1="690" y1="147" x2="627" y2="203"
      style="stroke: darkgray;"   />
<circle cx="485" cy="648" r="3" fill="blue" />
<line x1="485" y1="648" x2="506" y2="692"
      style="stroke: darkgray;"   />
<line x1="408" y1="634" x2="485" y2="648"
      style="stroke: darkgray;"   />
<circle cx="482" cy="488" r="3" fill="blue" />
<circle cx="487" cy="125" r="3" fill="blue" />
<line x1="509" y1="101" x2="487" y2="125"
      style="stroke: darkgray;"   />
<line x1="487" y1="125" x2="534" y2="185"
      style="stroke: darkgray;"   />
<line x1="487" y1="125" x2="511" y2="167"
      style="stroke: darkgray;"   />
<line x1="487" y1="125" x2="557" y2="154"
      style="stroke: darkgray;"   />
<line x1="487" y1="125" x2="567" y2="156"
      style="stroke: darkgray;"   />
<circle cx="509" cy="101" r="3" fill="blue" />
<line x1="509" y1="101" x2="534" y2="185"
      style="stroke: darkgray;"   />
<line x1="509" y1="101" x2="511" y2="167"
      style="stroke: darkgray;"   />
<line x1="509" y1="101" x2="557" y2="154"
      style="stroke: darkgray;"   />
<line x1="509" y1="101" x2="567" y2="156"
      style="stroke: darkgray;"   />
<circle cx="343" cy="282" r="3" fill="blue" />
<line x1="350" y1="247" x2="343" y2="282"
      style="stroke: darkgray;"   />
<line x1="318" y1="198" x2="343" y2="282"
      style="stroke: darkgray;"   />
<line x1="343" y1="282" x2="384" y2="349"
      style="stroke: darkgray;"   />
<line x1="415" y1="261" x2="343" y2="282"
      style="stroke: darkgray;"   />
<circle cx="389" cy="535" r="3" fill="blue" />
<line x1="389" y1="535" x2="357" y2="556"
      style="stroke: darkgray;"   />
<line x1="333" y1="493" x2="389" y2="535"
      style="stroke: darkgray;"   />
<circle cx="534" cy="185" r="3" fill="blue" />
<line x1="534" y1="185" x2="603" y2="236"
      style="stroke: darkgray;"   />
<line x1="534" y1="185" x2="532" y2="235"
      style="stroke: darkgray;"   />
<line x1="511" y1="167" x2="534" y2="185"
      style="stroke: darkgray;"   />
<line x1="557" y1="154" x2="534" y2="185"
      style="stroke: darkgray;"   />
<line x1="589" y1="184" x2="534" y2="185"
      style="stroke: darkgray;"   />
<line x1="567" y1="156" x2="534" y2="185"
      style="stroke: darkgray;"   />
<circle cx="603" cy="236" r="3" fill="blue" />
<line x1="532" y1="235" x2="603" y2="236"
      style="stroke: darkgray;"   />
<line x1="589" y1="184" x2="603" y2="236"
      style="stroke: darkgray;"   />
<line x1="567" y1="156" x2="603" y2="236"
      style="stroke: darkgray;"   />
<line x1="627" y1="203" x2="603" y2="236"
      style="stroke: darkgray;"   />
<circle cx="152" cy="476" r="3" fill="blue" />
<line x1="152" y1="476" x2="168" y2="485"
      style="stroke: darkgray;"   />
<line x1="105" y1="447" x2="152" y2="476"
      style="stroke: darkgray;"   />
<line x1="152" y1="476" x2="198" y2="481"
      style="stroke: darkgray;"   />
<circle cx="506" cy="692" r="3" fill="blue" />
<circle cx="532" cy="235" r="3" fill="blue" />
<line x1="532" y1="235" x2="527" y2="316"
      style="stroke: darkgray;"   />
<line x1="511" y1="167" x2="532" y2="235"
      style="stroke: darkgray;"   />
<line x1="557" y1="154" x2="532" y2="235"
      style="stroke: darkgray;"   />
<line x1="589" y1="184" x2="532" y2="235"
      style="stroke: darkgray;"   />
<line x1="567" y1="156" x2="532" y2="235"
      style="stroke: darkgray;"   />
<line x1="532" y1="235" x2="542" y2="316"
      style="stroke: darkgray;"   />
<line x1="532" y1="235" x2="497" y2="298"
      style="stroke: darkgray;"   />
<circle cx="527" cy="316" r="3" fill="blue" />
<line x1="527" y1="316" x2="542" y2="316"
      style="stroke: darkgray;"   />
<line x1="527" y1="316" x2="492" y2="353"
      style="stroke: darkgray;"   />
<line x1="497" y1="298" x2="527" y2="316"
      style="stroke: darkgray;"   />
<circle cx="635" cy="600" r="3" fill="blue" />
<line x1="635" y1="600" x2="658" y2="636"
      style="stroke: darkgray;"   />
<circle cx="229" cy="655" r="3" fill="blue" />
<line x1="229" y1="655" x2="229" y2="681"
      style="stroke: darkgray;"   />
<line x1="229" y1="655" x2="292" y2="696"
      style="stroke: darkgray;"   />
<circle cx="184" cy="220" r="3" fill="blue" />
<line x1="262" y1="204" x2="184" y2="220"
      style="stroke: darkgray;"   />
<line x1="154" y1="189" x2="184" y2="220"
      style="stroke: darkgray;"   />
<line x1="184" y1="220" x2="138" y2="251"
      style="stroke: darkgray;"   />
<circle cx="102" cy="569" r="3" fill="blue" />
<circle cx="168" cy="485" r="3" fill="blue" />
<line x1="105" y1="447" x2="168" y2="485"
      style="stroke: darkgray;"   />
<line x1="198" y1="481" x2="168" y2="485"
      style="stroke: darkgray;"   />
<circle cx="357" cy="556" r="3" fill="blue" />
<line x1="333" y1="493" x2="357" y2="556"
      style="stroke: darkgray;"   />
<circle cx="511" cy="167" r="3" fill="blue" />
<line x1="557" y1="154" x2="511" y2="167"
      style="stroke: darkgray;"   />
<line x1="511" y1="167" x2="589" y2="184"
      style="stroke: darkgray;"   />
<line x1="567" y1="156" x2="511" y2="167"
      style="stroke: darkgray;"   />
<circle cx="557" cy="154" r="3" fill="blue" />
<line x1="557" y1="154" x2="589" y2="184"
      style="stroke: darkgray;"   />
<line x1="557" y1="154" x2="567" y2="156"
      style="stroke: darkgray;"   />
<line x1="557" y1="154" x2="627" y2="203"
      style="stroke: darkgray;"   />
<circle cx="350" cy="247" r="3" fill="blue" />
<line x1="318" y1="198" x2="350" y2="247"
      style="stroke: darkgray;"   />
<line x1="350" y1="247" x2="415" y2="261"
      style="stroke: darkgray;"   />
<circle cx="589" cy="184" r="3" fill="blue" />
<line x1="567" y1="156" x2="589" y2="184"
      style="stroke: darkgray;"   />
<line x1="589" y1="184" x2="627" y2="203"
      style="stroke: darkgray;"   />
<circle cx="333" cy="493" r="3" fill="blue" />
<line x1="333" y1="493" x2="263" y2="529"
      style="stroke: darkgray;"   />
<circle cx="320" cy="385" r="3" fill="blue" />
<line x1="384" y1="349" x2="320" y2="385"
      style="stroke: darkgray;"   />
<circle cx="269" cy="126" r="3" fill="blue" />
<line x1="269" y1="126" x2="262" y2="204"
      style="stroke: darkgray;"   />
<line x1="269" y1="126" x2="318" y2="198"
      style="stroke: darkgray;"   />
<circle cx="377" cy="102" r="3" fill="blue" />
<circle cx="262" cy="204" r="3" fill="blue" />
<line x1="318" y1="198" x2="262" y2="204"
      style="stroke: darkgray;"   />
<circle cx="318" cy="198" r="3" fill="blue" />
<circle cx="105" cy="447" r="3" fill="blue" />
<circle cx="154" cy="189" r="3" fill="blue" />
<line x1="118" y1="130" x2="154" y2="189"
      style="stroke: darkgray;"   />
<line x1="154" y1="189" x2="138" y2="251"
      style="stroke: darkgray;"   />
<circle cx="567" cy="156" r="3" fill="blue" />
<line x1="567" y1="156" x2="627" y2="203"
      style="stroke: darkgray;"   />
<circle cx="658" cy="636" r="3" fill="blue" />
<circle cx="542" cy="316" r="3" fill="blue" />
<line x1="542" y1="316" x2="492" y2="353"
      style="stroke: darkgray;"   />
<line x1="497" y1="298" x2="542" y2="316"
      style="stroke: darkgray;"   />
<circle cx="492" cy="353" r="3" fill="blue" />
<line x1="497" y1="298" x2="492" y2="353"
      style="stroke: darkgray;"   />
<circle cx="384" cy="349" r="3" fill="blue" />
<circle cx="408" cy="634" r="3" fill="blue" />
<line x1="408" y1="634" x2="366" y2="693"
      style="stroke: darkgray;"   />
<circle cx="497" cy="298" r="3" fill="blue" />
<line x1="415" y1="261" x2="497" y2="298"
      style="stroke: darkgray;"   />
<circle cx="118" cy="130" r="3" fill="blue" />
<circle cx="691" cy="339" r="3" fill="blue" />
<circle cx="415" cy="261" r="3" fill="blue" />
<circle cx="366" cy="693" r="3" fill="blue" />
<line x1="366" y1="693" x2="292" y2="696"
      style="stroke: darkgray;"   />
<circle cx="263" cy="529" r="3" fill="blue" />
<line x1="198" y1="481" x2="263" y2="529"
      style="stroke: darkgray;"   />
<circle cx="198" cy="481" r="3" fill="blue" />
<circle cx="627" cy="203" r="3" fill="blue" />
<circle cx="229" cy="681" r="3" fill="blue" />
<line x1="229" y1="681" x2="292" y2="696"
      style="stroke: darkgray;"   />
<circle cx="292" cy="696" r="3" fill="blue" />
<circle cx="138" cy="251" r="3" fill="blue" />
</svg>
